<svg width="154" height="32" viewBox="0 0 154 32" fill="none" xmlns="http://www.w3.org/2000/svg">
<path fill-rule="evenodd" clip-rule="evenodd" d="M10.861 0.261216L20.1913 9.58171C20.5389 9.92896 20.5389 10.492 20.1913 10.8392L10.8498 20.1708C10.5022 20.5181 9.93862 20.5181 9.59101 20.1708L0.26071 10.8503C-0.0869033 10.5031 -0.0869033 9.9401 0.26071 9.59285L9.60216 0.261216C9.94978 -0.0860322 10.5134 -0.0860322 10.861 0.261216ZM22.2526 11.83L31.5829 21.1505C31.9305 21.4977 31.9305 22.0607 31.5829 22.408L22.2414 31.7396C21.8938 32.0868 21.3302 32.0868 20.9826 31.7396L11.6523 22.4191C11.3047 22.0718 11.3047 21.5089 11.6523 21.1616L20.9938 11.83C21.3414 11.4827 21.905 11.4827 22.2526 11.83ZM33.6441 0.260436L42.9744 9.58093C43.322 9.92817 43.322 10.4912 42.9744 10.8384L33.6329 20.1701C33.2853 20.5173 32.7217 20.5173 32.3741 20.1701L23.0438 10.8496C22.6962 10.5023 22.6962 9.93932 23.0438 9.59207L32.3853 0.260436C32.7329 -0.086812 33.2965 -0.086812 33.6441 0.260436Z" fill="#0023EF"/>
<mask id="mask0" mask-type="alpha" maskUnits="userSpaceOnUse" x="0" y="0" width="44" height="32">
<path fill-rule="evenodd" clip-rule="evenodd" d="M10.861 0.261216L20.1913 9.58171C20.5389 9.92896 20.5389 10.492 20.1913 10.8392L10.8498 20.1708C10.5022 20.5181 9.93862 20.5181 9.59101 20.1708L0.26071 10.8503C-0.0869033 10.5031 -0.0869033 9.9401 0.26071 9.59285L9.60216 0.261216C9.94978 -0.0860322 10.5134 -0.0860322 10.861 0.261216ZM22.2526 11.83L31.5829 21.1505C31.9305 21.4977 31.9305 22.0607 31.5829 22.408L22.2414 31.7396C21.8938 32.0868 21.3302 32.0868 20.9826 31.7396L11.6523 22.4191C11.3047 22.0718 11.3047 21.5089 11.6523 21.1616L20.9938 11.83C21.3414 11.4827 21.905 11.4827 22.2526 11.83ZM33.6441 0.260436L42.9744 9.58093C43.322 9.92817 43.322 10.4912 42.9744 10.8384L33.6329 20.1701C33.2853 20.5173 32.7217 20.5173 32.3741 20.1701L23.0438 10.8496C22.6962 10.5023 22.6962 9.93932 23.0438 9.59207L32.3853 0.260436C32.7329 -0.086812 33.2965 -0.086812 33.6441 0.260436Z" fill="white"/>
</mask>
<g mask="url(#mask0)">
</g>
<path fill-rule="evenodd" clip-rule="evenodd" d="M127.147 10.0571C123.723 10.0571 121.001 12.7831 121.001 16.1693C121.001 19.5556 123.723 22.2477 127.147 22.2477C130.572 22.2477 133.311 19.5556 133.311 16.1693C133.311 12.7831 130.572 10.0571 127.147 10.0571ZM127.147 19.5386C125.281 19.5386 123.74 18.0148 123.74 16.1693C123.74 14.3068 125.281 12.7661 127.147 12.7661C129.031 12.7661 130.572 14.3068 130.572 16.1693C130.572 18.0148 129.031 19.5386 127.147 19.5386ZM63.3169 22.0607L57.975 10.666C57.8723 10.4459 58.0092 10.2258 58.266 10.2258H60.5432C60.6802 10.2258 60.8 10.3273 60.8343 10.412L63.6593 16.5919H63.762L66.5871 10.412C66.6213 10.3273 66.7412 10.2258 66.8782 10.2258H69.1553C69.4121 10.2258 69.5491 10.4459 69.4464 10.666L64.0702 22.0607C64.0189 22.1623 63.9161 22.247 63.7792 22.247H63.608C63.471 22.247 63.3683 22.1623 63.3169 22.0607ZM80.3076 22.0783C80.0507 22.0783 79.9138 21.8582 80.0165 21.6381L85.3755 10.2434C85.4269 10.1418 85.5467 10.0571 85.6666 10.0571H85.8378C85.9577 10.0571 86.0775 10.1418 86.1289 10.2434L91.4879 21.6381C91.5906 21.8582 91.4537 22.0783 91.1968 22.0783H89.2964C88.9882 22.0783 88.8512 21.9768 88.6971 21.6551L88.0807 20.3175H83.4237L82.8073 21.672C82.7217 21.8752 82.5334 22.0783 82.1909 22.0783H80.3076ZM84.4507 18.0148H87.0532L85.7519 15.2211H85.7348L84.4507 18.0148ZM104.558 21.757V10.5484C104.558 10.3791 104.712 10.2267 104.883 10.2267H106.937C107.109 10.2267 107.263 10.3791 107.263 10.5484V21.757C107.263 21.9263 107.109 22.0786 106.937 22.0786H104.883C104.712 22.0786 104.558 21.9263 104.558 21.757ZM148.521 21.757V12.7156H146.073C145.884 12.7156 145.747 12.5633 145.747 12.394V10.5484C145.747 10.3791 145.884 10.2267 146.073 10.2267H153.675C153.863 10.2267 154 10.3791 154 10.5484V12.394C154 12.5633 153.863 12.7156 153.675 12.7156H151.226V21.757C151.226 21.9263 151.072 22.0786 150.901 22.0786H148.846C148.675 22.0786 148.521 21.9263 148.521 21.757Z" fill="#0023EF"/>
</svg>
