<?xml version="1.0" encoding="utf-8"?>
<!-- Generator: Adobe Illustrator 15.1.0, SVG Export Plug-In . SVG Version: 6.00 Build 0)  -->
<!DOCTYPE svg PUBLIC "-//W3C//DTD SVG 1.1//EN" "http://www.w3.org/Graphics/SVG/1.1/DTD/svg11.dtd">
<svg version="1.1" xmlns="http://www.w3.org/2000/svg" xmlns:xlink="http://www.w3.org/1999/xlink" x="0px" y="0px" width="181px"
	 height="97px" viewBox="0 0 181 97" enable-background="new 0 0 181 97" xml:space="preserve">
<g id="Group_1_1_">
	<g id="Shape_47">
		<g>
			<ellipse fill-rule="evenodd" clip-rule="evenodd" fill="#175186" cx="167.162" cy="93.806" rx="7.357" ry="2.904"/>
		</g>
	</g>
	<g id="Shape_46">
		<g>
			<path fill-rule="evenodd" clip-rule="evenodd" fill="#175186" d="M155.545,53.728c6.97,12.778,5.809,39.885,5.809,39.885h7.744
				c0-14.327,6.583-39.885,6.583-39.885H155.545z"/>
		</g>
	</g>
	<g id="Shape_43">
		<g>
			<circle fill-rule="evenodd" clip-rule="evenodd" fill="#175186" cx="165.612" cy="9.196" r="8.906"/>
		</g>
	</g>
	<g id="Shape_48">
		<g>
			<path fill-rule="evenodd" clip-rule="evenodd" fill="#FFFFFF" d="M175.294,54.502c-10.068,21.685-9.682,37.562-9.682,37.562
				h2.324c-0.774-15.877,7.357-34.464,7.357-34.464V54.502z"/>
		</g>
	</g>
	<g id="Shape_44">
		<g>
			<path fill-rule="evenodd" clip-rule="evenodd" fill="#175186" d="M166,20.426c-5.988,0-10.843,4.854-10.843,10.843v22.459h21.686
				V31.269C176.843,25.28,171.988,20.426,166,20.426z"/>
		</g>
	</g>
	<g id="Shape_44_copy">
		<g>
			<path fill-rule="evenodd" clip-rule="evenodd" fill="#FFFFFF" d="M166,22.602c-5.206,0-9.426,4.22-9.426,9.426v19.524h18.852
				V32.027C175.426,26.821,171.206,22.602,166,22.602z"/>
		</g>
	</g>
	<g id="Shape_44_copy_2">
		<g>
			<path fill-rule="evenodd" clip-rule="evenodd" fill="#59E7A2" d="M166,22.602c-5.206,0-9.426,4.22-9.426,9.426v19.524
				l18.852-19.524C175.426,26.821,171.206,22.602,166,22.602z"/>
		</g>
	</g>
	<g id="Shape_45">
		<g>
			<path fill-rule="evenodd" clip-rule="evenodd" fill="#FFFFFF" d="M166.193,24.481c-3.006,0-5.443,1.743-5.443,3.895v27.47
				c0,2.151,2.438,3.895,5.443,3.895c3.007,0,5.444-1.743,5.444-3.895v-27.47C171.638,26.225,169.2,24.481,166.193,24.481z"/>
		</g>
	</g>
	<g id="Shape_45_copy">
		<g>
			<path fill-rule="evenodd" clip-rule="evenodd" fill="#175186" d="M166.193,25.46c-2.031,0-3.679,1.646-3.679,3.679v25.944
				c0,2.031,1.647,3.679,3.679,3.679c2.032,0,3.679-1.647,3.679-3.679V29.139C169.872,27.106,168.226,25.46,166.193,25.46z"/>
		</g>
	</g>
</g>
<g id="Group_1_copy_1_">
	<g id="Shape_47_1_">
		<g>
			<ellipse fill-rule="evenodd" clip-rule="evenodd" fill="#175186" cx="87.162" cy="93.806" rx="7.357" ry="2.904"/>
		</g>
	</g>
	<g id="Shape_46_1_">
		<g>
			<path fill-rule="evenodd" clip-rule="evenodd" fill="#175186" d="M75.545,53.728c6.97,12.778,5.809,39.885,5.809,39.885h7.744
				c0-14.327,6.583-39.885,6.583-39.885H75.545z"/>
		</g>
	</g>
	<g id="Shape_43_1_">
		<g>
			<circle fill-rule="evenodd" clip-rule="evenodd" fill="#175186" cx="85.612" cy="9.196" r="8.906"/>
		</g>
	</g>
	<g id="Shape_48_1_">
		<g>
			<path fill-rule="evenodd" clip-rule="evenodd" fill="#FFFFFF" d="M95.294,54.502c-10.068,21.685-9.682,37.562-9.682,37.562h2.324
				C87.162,76.187,95.294,57.6,95.294,57.6V54.502z"/>
		</g>
	</g>
	<g id="Shape_44_1_">
		<g>
			<path fill-rule="evenodd" clip-rule="evenodd" fill="#175186" d="M86,20.426c-5.988,0-10.843,4.854-10.843,10.843v22.459h21.686
				V31.269C96.843,25.28,91.988,20.426,86,20.426z"/>
		</g>
	</g>
	<g id="Shape_44_copy_1_">
		<g>
			<path fill-rule="evenodd" clip-rule="evenodd" fill="#FFFFFF" d="M86,22.602c-5.206,0-9.426,4.22-9.426,9.426v19.524h18.852
				V32.027C95.426,26.821,91.206,22.602,86,22.602z"/>
		</g>
	</g>
	<g id="Shape_44_copy_2_1_">
		<g>
			<path fill-rule="evenodd" clip-rule="evenodd" fill="#59E7A2" d="M86,22.602c-5.206,0-9.426,4.22-9.426,9.426v19.524
				l18.852-19.524C95.426,26.821,91.206,22.602,86,22.602z"/>
		</g>
	</g>
	<g id="Shape_45_1_">
		<g>
			<path fill-rule="evenodd" clip-rule="evenodd" fill="#FFFFFF" d="M86.193,24.481c-3.006,0-5.443,1.743-5.443,3.895v27.47
				c0,2.151,2.438,3.895,5.443,3.895c3.007,0,5.444-1.743,5.444-3.895v-27.47C91.638,26.225,89.2,24.481,86.193,24.481z"/>
		</g>
	</g>
	<g id="Shape_45_copy_1_">
		<g>
			<path fill-rule="evenodd" clip-rule="evenodd" fill="#175186" d="M86.193,25.46c-2.031,0-3.679,1.646-3.679,3.679v25.944
				c0,2.031,1.647,3.679,3.679,3.679c2.032,0,3.679-1.647,3.679-3.679V29.139C89.872,27.106,88.226,25.46,86.193,25.46z"/>
		</g>
	</g>
</g>
<g id="Group_1_copy_2_1_">
	<g id="Shape_47_2_">
		<g>
			<ellipse fill-rule="evenodd" clip-rule="evenodd" fill="#175186" cx="14.162" cy="93.806" rx="7.357" ry="2.904"/>
		</g>
	</g>
	<g id="Shape_46_2_">
		<g>
			<path fill-rule="evenodd" clip-rule="evenodd" fill="#175186" d="M2.545,53.728c6.97,12.778,5.808,39.885,5.808,39.885h7.745
				c0-14.327,6.583-39.885,6.583-39.885H2.545z"/>
		</g>
	</g>
	<g id="Shape_43_2_">
		<g>
			<circle fill-rule="evenodd" clip-rule="evenodd" fill="#175186" cx="12.613" cy="9.196" r="8.906"/>
		</g>
	</g>
	<g id="Shape_48_2_">
		<g>
			<path fill-rule="evenodd" clip-rule="evenodd" fill="#FFFFFF" d="M22.293,54.502c-10.068,21.685-9.681,37.562-9.681,37.562h2.323
				C14.162,76.187,22.293,57.6,22.293,57.6V54.502z"/>
		</g>
	</g>
	<g id="Shape_44_2_">
		<g>
			<path fill-rule="evenodd" clip-rule="evenodd" fill="#175186" d="M13,20.426c-5.988,0-10.842,4.854-10.842,10.843v22.459h21.685
				V31.269C23.842,25.28,18.988,20.426,13,20.426z"/>
		</g>
	</g>
	<g id="Shape_44_copy_2_">
		<g>
			<path fill-rule="evenodd" clip-rule="evenodd" fill="#FFFFFF" d="M13,22.602c-5.206,0-9.426,4.22-9.426,9.426v19.524h18.852
				V32.027C22.426,26.821,18.206,22.602,13,22.602z"/>
		</g>
	</g>
	<g id="Shape_44_copy_2_2_">
		<g>
			<path fill-rule="evenodd" clip-rule="evenodd" fill="#59E7A2" d="M13,22.602c-5.206,0-9.426,4.22-9.426,9.426v19.524
				l18.852-19.524C22.426,26.821,18.206,22.602,13,22.602z"/>
		</g>
	</g>
	<g id="Shape_45_2_">
		<g>
			<path fill-rule="evenodd" clip-rule="evenodd" fill="#FFFFFF" d="M13.194,24.481c-3.007,0-5.444,1.743-5.444,3.895v27.47
				c0,2.151,2.438,3.895,5.444,3.895c3.006,0,5.444-1.743,5.444-3.895v-27.47C18.638,26.225,16.2,24.481,13.194,24.481z"/>
		</g>
	</g>
	<g id="Shape_45_copy_2_">
		<g>
			<path fill-rule="evenodd" clip-rule="evenodd" fill="#175186" d="M13.194,25.46c-2.032,0-3.679,1.646-3.679,3.679v25.944
				c0,2.031,1.647,3.679,3.679,3.679c2.031,0,3.678-1.647,3.678-3.679V29.139C16.872,27.106,15.225,25.46,13.194,25.46z"/>
		</g>
	</g>
</g>
</svg>
