<?xml version="1.0" encoding="utf-8"?>
<!-- Generator: Adobe Illustrator 15.1.0, SVG Export Plug-In . SVG Version: 6.00 Build 0)  -->
<!DOCTYPE svg PUBLIC "-//W3C//DTD SVG 1.1//EN" "http://www.w3.org/Graphics/SVG/1.1/DTD/svg11.dtd">
<svg version="1.1" xmlns="http://www.w3.org/2000/svg" xmlns:xlink="http://www.w3.org/1999/xlink" x="0px" y="0px" width="77px"
	 height="136px" viewBox="0 0 77 136" enable-background="new 0 0 77 136" xml:space="preserve">
<g id="Shape_3_1_" enable-background="new    ">
	<g id="Shape_3">
		<g>
			<rect x="36.9" y="32.918" fill-rule="evenodd" clip-rule="evenodd" fill="#324D5B" width="1.846" height="45.626"/>
		</g>
	</g>
</g>
<g id="Shape_1_1_" enable-background="new    ">
	<g id="Shape_1">
		<g>
			<path fill-rule="evenodd" clip-rule="evenodd" fill="#59E7A2" d="M37.824,2.456c-19.713,0-35.996,14.888-38.548,34.191
				C2,34.881,5.337,33.841,8.944,33.841c6.064,0,11.368,2.94,14.269,7.33c2.97-4.391,8.401-7.33,14.61-7.33
				c6.228,0,11.673,2.958,14.637,7.371c2.964-4.413,8.41-7.371,14.638-7.371c3.398,0,6.563,0.881,9.22,2.397
				C73.592,17.133,57.397,2.456,37.824,2.456z"/>
		</g>
	</g>
</g>
<g id="Shape_2_1_" enable-background="new    ">
	<g id="Shape_2">
		<g>
			<path fill-rule="evenodd" clip-rule="evenodd" fill="#256CB2" d="M38.483,2.588c0,0-14.637,5.011-15.033,38.374
				c0,0,7.709-7.37,15.179-7.336c7.021,0.032,13.832,7.468,13.832,7.468S54.043,11.818,38.483,2.588z"/>
		</g>
	</g>
</g>
<g id="Group_1_1_">
	<g id="Shape_47">
		<g>
			<ellipse fill-rule="evenodd" clip-rule="evenodd" fill="#175186" cx="19.162" cy="133.806" rx="7.357" ry="2.904"/>
		</g>
	</g>
	<g id="Shape_46">
		<g>
			<path fill-rule="evenodd" clip-rule="evenodd" fill="#175186" d="M7.545,93.728c6.97,12.778,5.808,39.885,5.808,39.885h7.745
				c0-14.327,6.583-39.885,6.583-39.885H7.545z"/>
		</g>
	</g>
	<g id="Shape_43">
		<g>
			<circle fill-rule="evenodd" clip-rule="evenodd" fill="#175186" cx="17.613" cy="49.196" r="8.906"/>
		</g>
	</g>
	<g id="Shape_48">
		<g>
			<path fill-rule="evenodd" clip-rule="evenodd" fill="#FFFFFF" d="M27.293,94.502c-10.068,21.685-9.681,37.562-9.681,37.562h2.323
				C19.162,116.187,27.293,97.6,27.293,97.6V94.502z"/>
		</g>
	</g>
	<g id="Shape_44">
		<g>
			<path fill-rule="evenodd" clip-rule="evenodd" fill="#175186" d="M18,60.426c-5.988,0-10.842,4.854-10.842,10.843v22.459h21.685
				V71.269C28.842,65.28,23.988,60.426,18,60.426z"/>
		</g>
	</g>
	<g id="Shape_44_copy">
		<g>
			<path fill-rule="evenodd" clip-rule="evenodd" fill="#FFFFFF" d="M18,62.602c-5.206,0-9.426,4.22-9.426,9.426v19.524h18.852
				V72.027C27.426,66.821,23.206,62.602,18,62.602z"/>
		</g>
	</g>
	<g id="Shape_44_copy_2">
		<g>
			<path fill-rule="evenodd" clip-rule="evenodd" fill="#59E7A2" d="M18,62.602c-5.206,0-9.426,4.22-9.426,9.426v19.524
				l18.852-19.524C27.426,66.821,23.206,62.602,18,62.602z"/>
		</g>
	</g>
	<g id="Shape_45">
		<g>
			<path fill-rule="evenodd" clip-rule="evenodd" fill="#FFFFFF" d="M18.194,64.481c-3.007,0-5.444,1.743-5.444,3.895v27.47
				c0,2.151,2.438,3.895,5.444,3.895c3.006,0,5.444-1.743,5.444-3.895v-27.47C23.638,66.225,21.2,64.481,18.194,64.481z"/>
		</g>
	</g>
	<g id="Shape_45_copy">
		<g>
			<path fill-rule="evenodd" clip-rule="evenodd" fill="#175186" d="M18.194,65.46c-2.032,0-3.679,1.646-3.679,3.679v25.944
				c0,2.031,1.647,3.679,3.679,3.679c2.031,0,3.678-1.647,3.678-3.679V69.139C21.872,67.106,20.225,65.46,18.194,65.46z"/>
		</g>
	</g>
</g>
<g id="Group_1_copy_1_">
	<g id="Shape_47_1_">
		<g>
			<ellipse fill-rule="evenodd" clip-rule="evenodd" fill="#175186" cx="39.162" cy="133.806" rx="7.358" ry="2.904"/>
		</g>
	</g>
	<g id="Shape_46_1_">
		<g>
			<path fill-rule="evenodd" clip-rule="evenodd" fill="#175186" d="M27.545,93.728c6.97,12.778,5.808,39.885,5.808,39.885h7.745
				c0-14.327,6.583-39.885,6.583-39.885H27.545z"/>
		</g>
	</g>
	<g id="Shape_43_1_">
		<g>
			<circle fill-rule="evenodd" clip-rule="evenodd" fill="#175186" cx="37.613" cy="49.196" r="8.906"/>
		</g>
	</g>
	<g id="Shape_48_1_">
		<g>
			<path fill-rule="evenodd" clip-rule="evenodd" fill="#FFFFFF" d="M47.293,94.502c-10.067,21.685-9.68,37.562-9.68,37.562h2.323
				C39.162,116.187,47.293,97.6,47.293,97.6V94.502z"/>
		</g>
	</g>
	<g id="Shape_44_1_">
		<g>
			<path fill-rule="evenodd" clip-rule="evenodd" fill="#175186" d="M38,60.426c-5.988,0-10.842,4.854-10.842,10.843v22.459h21.684
				V71.269C48.842,65.28,43.988,60.426,38,60.426z"/>
		</g>
	</g>
	<g id="Shape_44_copy_1_">
		<g>
			<path fill-rule="evenodd" clip-rule="evenodd" fill="#FFFFFF" d="M38,62.602c-5.206,0-9.426,4.22-9.426,9.426v19.524h18.852
				V72.027C47.426,66.821,43.205,62.602,38,62.602z"/>
		</g>
	</g>
	<g id="Shape_44_copy_2_1_">
		<g>
			<path fill-rule="evenodd" clip-rule="evenodd" fill="#59E7A2" d="M38,62.602c-5.206,0-9.426,4.22-9.426,9.426v19.524
				l18.852-19.524C47.426,66.821,43.205,62.602,38,62.602z"/>
		</g>
	</g>
	<g id="Shape_45_1_">
		<g>
			<path fill-rule="evenodd" clip-rule="evenodd" fill="#FFFFFF" d="M38.194,64.481c-3.007,0-5.444,1.743-5.444,3.895v27.47
				c0,2.151,2.438,3.895,5.444,3.895c3.006,0,5.444-1.743,5.444-3.895v-27.47C43.638,66.225,41.2,64.481,38.194,64.481z"/>
		</g>
	</g>
	<g id="Shape_45_copy_1_">
		<g>
			<path fill-rule="evenodd" clip-rule="evenodd" fill="#175186" d="M38.194,65.46c-2.032,0-3.679,1.646-3.679,3.679v25.944
				c0,2.031,1.647,3.679,3.679,3.679c2.031,0,3.678-1.647,3.678-3.679V69.139C41.872,67.106,40.225,65.46,38.194,65.46z"/>
		</g>
	</g>
</g>
<g id="Group_1_copy_2_1_">
	<g id="Shape_47_2_">
		<g>
			<ellipse fill-rule="evenodd" clip-rule="evenodd" fill="#175186" cx="58.162" cy="133.806" rx="7.357" ry="2.904"/>
		</g>
	</g>
	<g id="Shape_46_2_">
		<g>
			<path fill-rule="evenodd" clip-rule="evenodd" fill="#175186" d="M46.545,93.728c6.971,12.778,5.809,39.885,5.809,39.885h7.744
				c0-14.327,6.583-39.885,6.583-39.885H46.545z"/>
		</g>
	</g>
	<g id="Shape_43_2_">
		<g>
			<circle fill-rule="evenodd" clip-rule="evenodd" fill="#175186" cx="56.613" cy="49.196" r="8.906"/>
		</g>
	</g>
	<g id="Shape_48_2_">
		<g>
			<path fill-rule="evenodd" clip-rule="evenodd" fill="#FFFFFF" d="M66.293,94.502c-10.067,21.685-9.68,37.562-9.68,37.562h2.322
				C58.162,116.187,66.293,97.6,66.293,97.6V94.502z"/>
		</g>
	</g>
	<g id="Shape_44_2_">
		<g>
			<path fill-rule="evenodd" clip-rule="evenodd" fill="#175186" d="M57,60.426c-5.988,0-10.842,4.854-10.842,10.843v22.459h21.684
				V71.269C67.842,65.28,62.988,60.426,57,60.426z"/>
		</g>
	</g>
	<g id="Shape_44_copy_2_">
		<g>
			<path fill-rule="evenodd" clip-rule="evenodd" fill="#FFFFFF" d="M57,62.602c-5.205,0-9.426,4.22-9.426,9.426v19.524h18.852
				V72.027C66.426,66.821,62.205,62.602,57,62.602z"/>
		</g>
	</g>
	<g id="Shape_44_copy_2_2_">
		<g>
			<path fill-rule="evenodd" clip-rule="evenodd" fill="#59E7A2" d="M57,62.602c-5.205,0-9.426,4.22-9.426,9.426v19.524
				l18.852-19.524C66.426,66.821,62.205,62.602,57,62.602z"/>
		</g>
	</g>
	<g id="Shape_45_2_">
		<g>
			<path fill-rule="evenodd" clip-rule="evenodd" fill="#FFFFFF" d="M57.193,64.481c-3.006,0-5.443,1.743-5.443,3.895v27.47
				c0,2.151,2.438,3.895,5.443,3.895c3.007,0,5.444-1.743,5.444-3.895v-27.47C62.638,66.225,60.2,64.481,57.193,64.481z"/>
		</g>
	</g>
	<g id="Shape_45_copy_2_">
		<g>
			<path fill-rule="evenodd" clip-rule="evenodd" fill="#175186" d="M57.193,65.46c-2.031,0-3.678,1.646-3.678,3.679v25.944
				c0,2.031,1.646,3.679,3.678,3.679s3.679-1.647,3.679-3.679V69.139C60.872,67.106,59.225,65.46,57.193,65.46z"/>
		</g>
	</g>
</g>
<g id="Shape_133_1_" enable-background="new    ">
	<g id="Shape_133">
		<g>
			<path fill-rule="evenodd" clip-rule="evenodd" fill="#FFFFFF" d="M18.883,52.714c0,0,3.882,3.379,6.491,2.48l1.623-1.804
				C26.998,53.391,22.934,55.979,18.883,52.714z M36.883,52.714c0,0,3.882,3.379,6.492,2.48l1.623-1.804
				C44.998,53.391,40.934,55.979,36.883,52.714z M55.883,52.714c0,0,3.883,3.379,6.492,2.48l1.623-1.804
				C63.998,53.391,59.934,55.979,55.883,52.714z"/>
		</g>
	</g>
</g>
</svg>
