<?xml version="1.0" encoding="utf-8"?>
<!-- Generator: Adobe Illustrator 15.1.0, SVG Export Plug-In . SVG Version: 6.00 Build 0)  -->
<!DOCTYPE svg PUBLIC "-//W3C//DTD SVG 1.1//EN" "http://www.w3.org/Graphics/SVG/1.1/DTD/svg11.dtd">
<svg version="1.1" xmlns="http://www.w3.org/2000/svg" xmlns:xlink="http://www.w3.org/1999/xlink" x="0px" y="0px" width="77px"
	 height="136px" viewBox="0 0 77 136" enable-background="new 0 0 77 136" xml:space="preserve">
<g id="Shape_3_1_" enable-background="new    ">
	<g id="Shape_3">
		<g>
			<rect x="36.9" y="32.918" fill-rule="evenodd" clip-rule="evenodd" fill="#324D5B" width="1.846" height="45.626"/>
		</g>
	</g>
</g>
<g id="Shape_1_1_" enable-background="new    ">
	<g id="Shape_1">
		<g>
			<path fill-rule="evenodd" clip-rule="evenodd" fill="#59E7A2" d="M37.824,2.456c-19.713,0-35.996,14.888-38.548,34.191
				C2,34.881,5.337,33.841,8.944,33.841c6.064,0,11.368,2.94,14.269,7.33c2.97-4.391,8.401-7.33,14.61-7.33
				c6.228,0,11.673,2.958,14.637,7.371c2.964-4.413,8.41-7.371,14.638-7.371c3.398,0,6.563,0.881,9.22,2.397
				C73.592,17.133,57.397,2.456,37.824,2.456z"/>
		</g>
	</g>
</g>
<g id="Shape_2_1_" enable-background="new    ">
	<g id="Shape_2">
		<g>
			<path fill-rule="evenodd" clip-rule="evenodd" fill="#256CB2" d="M38.483,2.588c0,0-14.637,5.011-15.033,38.374
				c0,0,7.172-7.468,14.384-7.435c7.293,0.033,14.627,7.566,14.627,7.566S54.043,11.818,38.483,2.588z"/>
		</g>
	</g>
</g>
<g id="Group_1_1_">
	<g id="Shape_47">
		<g>
			<ellipse fill-rule="evenodd" clip-rule="evenodd" fill="#175186" cx="40.162" cy="133.806" rx="7.358" ry="2.904"/>
		</g>
	</g>
	<g id="Shape_46">
		<g>
			<path fill-rule="evenodd" clip-rule="evenodd" fill="#175186" d="M28.545,93.728c6.97,12.778,5.808,39.885,5.808,39.885h7.745
				c0-14.327,6.583-39.885,6.583-39.885H28.545z"/>
		</g>
	</g>
	<g id="Shape_43">
		<g>
			<circle fill-rule="evenodd" clip-rule="evenodd" fill="#175186" cx="38.613" cy="49.196" r="8.906"/>
		</g>
	</g>
	<g id="Shape_48">
		<g>
			<path fill-rule="evenodd" clip-rule="evenodd" fill="#FFFFFF" d="M48.293,94.502c-10.067,21.685-9.68,37.562-9.68,37.562h2.323
				C40.162,116.187,48.293,97.6,48.293,97.6V94.502z"/>
		</g>
	</g>
	<g id="Shape_44">
		<g>
			<path fill-rule="evenodd" clip-rule="evenodd" fill="#175186" d="M39,60.426c-5.988,0-10.842,4.854-10.842,10.843v22.459h21.684
				V71.269C49.842,65.28,44.988,60.426,39,60.426z"/>
		</g>
	</g>
	<g id="Shape_44_copy">
		<g>
			<path fill-rule="evenodd" clip-rule="evenodd" fill="#FFFFFF" d="M39,62.602c-5.206,0-9.426,4.22-9.426,9.426v19.524h18.852
				V72.027C48.426,66.821,44.205,62.602,39,62.602z"/>
		</g>
	</g>
	<g id="Shape_44_copy_2">
		<g>
			<path fill-rule="evenodd" clip-rule="evenodd" fill="#59E7A2" d="M39,62.602c-5.206,0-9.426,4.22-9.426,9.426v19.524
				l18.852-19.524C48.426,66.821,44.205,62.602,39,62.602z"/>
		</g>
	</g>
	<g id="Shape_45">
		<g>
			<path fill-rule="evenodd" clip-rule="evenodd" fill="#FFFFFF" d="M39.193,64.481c-3.006,0-5.444,1.743-5.444,3.895v27.47
				c0,2.151,2.438,3.895,5.444,3.895c3.007,0,5.444-1.743,5.444-3.895v-27.47C44.638,66.225,42.2,64.481,39.193,64.481z"/>
		</g>
	</g>
	<g id="Shape_45_copy">
		<g>
			<path fill-rule="evenodd" clip-rule="evenodd" fill="#175186" d="M39.193,65.46c-2.031,0-3.678,1.646-3.678,3.679v25.944
				c0,2.031,1.647,3.679,3.678,3.679s3.679-1.647,3.679-3.679V69.139C42.872,67.106,41.225,65.46,39.193,65.46z"/>
		</g>
	</g>
</g>
<g id="Shape_133_1_" enable-background="new    ">
	<g id="Shape_133">
		<g>
			<path fill-rule="evenodd" clip-rule="evenodd" fill="#FFFFFF" d="M37.883,51.714c0,0,3.882,3.379,6.492,2.48l1.623-1.804
				C45.998,52.391,41.934,54.979,37.883,51.714z"/>
		</g>
	</g>
</g>
</svg>
