<?xml version="1.0" encoding="UTF-8" standalone="no"?>
<svg
   xmlns:dc="http://purl.org/dc/elements/1.1/"
   xmlns:cc="http://creativecommons.org/ns#"
   xmlns:rdf="http://www.w3.org/1999/02/22-rdf-syntax-ns#"
   xmlns:svg="http://www.w3.org/2000/svg"
   xmlns="http://www.w3.org/2000/svg"
   xmlns:sodipodi="http://sodipodi.sourceforge.net/DTD/sodipodi-0.dtd"
   xmlns:inkscape="http://www.inkscape.org/namespaces/inkscape"
   version="1.1"
   id="svg2"
   xml:space="preserve"
   width="1365.3333"
   height="682.66669"
   viewBox="0 0 1365.3333 682.66669"
   sodipodi:docname="Cover Compared logo new  .ai"><metadata
     id="metadata8"><rdf:RDF><cc:Work
         rdf:about=""><dc:format>image/svg+xml</dc:format><dc:type
           rdf:resource="http://purl.org/dc/dcmitype/StillImage" /></cc:Work></rdf:RDF></metadata><defs
     id="defs6"><linearGradient
       x1="0"
       y1="0"
       x2="1"
       y2="0"
       gradientUnits="userSpaceOnUse"
       gradientTransform="matrix(220.15152,-13.90332,13.90332,220.15152,24.17498,263.57346)"
       spreadMethod="pad"
       id="linearGradient30"><stop
         style="stop-opacity:1;stop-color:#255da9"
         offset="0"
         id="stop24" /><stop
         style="stop-opacity:1;stop-color:#53bfc2"
         offset="0.998677"
         id="stop26" /><stop
         style="stop-opacity:1;stop-color:#53bfc2"
         offset="1"
         id="stop28" /></linearGradient><clipPath
       clipPathUnits="userSpaceOnUse"
       id="clipPath40"><path
         d="M 0,512 H 1024 V 0 H 0 Z"
         id="path38" /></clipPath><clipPath
       clipPathUnits="userSpaceOnUse"
       id="clipPath142"><path
         d="M 0,512 H 1024 V 0 H 0 Z"
         id="path140" /></clipPath></defs><sodipodi:namedview
     pagecolor="#ffffff"
     bordercolor="#666666"
     borderopacity="1"
     objecttolerance="10"
     gridtolerance="10"
     guidetolerance="10"
     inkscape:pageopacity="0"
     inkscape:pageshadow="2"
     inkscape:window-width="640"
     inkscape:window-height="480"
     id="namedview4" /><g
     id="g10"
     inkscape:groupmode="layer"
     inkscape:label="Cover Compared logo new  "
     transform="matrix(1.3333333,0,0,-1.3333333,0,682.66667)"><g
       id="g12"><g
         id="g14"><g
           id="g20"><g
             id="g22"><path
               d="m 80.411,344.392 c -14.441,0 -26.278,-11.685 -26.164,-26.304 v 0 -89.455 c 0,-8.605 4.222,-16.957 11.814,-21.884 v 0 l 52.738,-34.731 0.008,-0.006 c 8.754,-5.775 20.051,-5.773 28.807,-0.001 v 0 l 0.009,0.007 52.74,34.731 c 7.6,4.933 11.727,13.218 11.885,21.614 v 0 l 0.004,0.135 v 64.461 c -5.979,-3.459 -12.921,-5.438 -20.324,-5.438 v 0 c -2.834,0 -5.6,0.291 -8.27,0.843 v 0 -58.379 L 133.212,196.764 82.84,229.936 v 85.862 h 70.356 c -1.244,3.901 -1.917,8.058 -1.917,12.372 v 0 c 0,5.766 1.201,11.252 3.366,16.222 v 0 z"
               style="fill:url(#linearGradient30);stroke:none"
               id="path32" /></g></g></g></g><g
       id="g34"><g
         id="g36"
         clip-path="url(#clipPath40)"><g
           id="g42"
           transform="translate(226.7197,227.0719)"><path
             d="M 0,0 C 0,6.285 5.126,11.319 11.317,11.319 17.602,11.319 22.633,6.19 22.633,0 v -29.3 c 0,-3.781 -1.852,-7.324 -5.039,-9.45 l -0.014,-0.009 -55.83,-36.772 -3.222,4.893 55.816,36.762 c 0.002,10e-4 0.004,0.003 0.006,0.004 1.528,1.022 2.425,2.72 2.425,4.572 V 0 c 0,2.986 -2.439,5.461 -5.458,5.461 C 8.333,5.461 5.858,3.022 5.858,0 v -20.319 c 0,-3.721 -1.854,-7.246 -4.942,-9.364 l -0.016,-0.011 -19.2,-12.978 -3.281,4.853 19.191,12.972 c 1.494,1.029 2.39,2.745 2.39,4.528 z"
             style="fill:#111937;fill-opacity:1;fill-rule:evenodd;stroke:none"
             id="path44" /></g><g
           id="g46"
           transform="translate(144.7417,357.3307)"><path
             d="M 0,0 C 2.458,0 4.45,1.992 4.45,4.45 4.45,6.908 2.458,8.901 0,8.901 -2.458,8.901 -4.45,6.908 -4.45,4.45 -4.45,1.992 -2.458,0 0,0"
             style="fill:#111937;fill-opacity:1;fill-rule:nonzero;stroke:none"
             id="path48" /></g><g
           id="g50"
           transform="translate(246.7491,298.4454)"><path
             d="M 0,0 C 2.458,0 4.45,1.992 4.45,4.45 4.45,6.908 2.458,8.9 0,8.9 -2.458,8.9 -4.45,6.908 -4.45,4.45 -4.45,1.992 -2.458,0 0,0"
             style="fill:#111937;fill-opacity:1;fill-rule:nonzero;stroke:none"
             id="path52" /></g><g
           id="g54"
           transform="translate(18.7608,298.4454)"><path
             d="M 0,0 C 2.458,0 4.45,1.992 4.45,4.45 4.45,6.908 2.458,8.9 0,8.9 -2.458,8.9 -4.45,6.908 -4.45,4.45 -4.45,1.992 -2.458,0 0,0"
             style="fill:#111937;fill-opacity:1;fill-rule:nonzero;stroke:none"
             id="path56" /></g><g
           id="g58"
           transform="translate(246.7491,279.9605)"><path
             d="M 0,0 C 2.458,0 4.45,1.993 4.45,4.45 4.45,6.908 2.458,8.9 0,8.9 -2.458,8.9 -4.45,6.908 -4.45,4.45 -4.45,1.993 -2.458,0 0,0"
             style="fill:#111937;fill-opacity:1;fill-rule:nonzero;stroke:none"
             id="path60" /></g><g
           id="g62"
           transform="translate(18.7608,279.9605)"><path
             d="M 0,0 C 2.458,0 4.45,1.993 4.45,4.45 4.45,6.908 2.458,8.9 0,8.9 -2.458,8.9 -4.45,6.908 -4.45,4.45 -4.45,1.993 -2.458,0 0,0"
             style="fill:#111937;fill-opacity:1;fill-rule:nonzero;stroke:none"
             id="path64" /></g><g
           id="g66"
           transform="translate(194.7181,174.5215)"><path
             d="M 0,0 C 2.458,0 4.45,1.992 4.45,4.45 4.45,6.908 2.458,8.9 0,8.9 -2.458,8.9 -4.45,6.908 -4.45,4.45 -4.45,1.992 -2.458,0 0,0"
             style="fill:#111937;fill-opacity:1;fill-rule:nonzero;stroke:none"
             id="path68" /></g><g
           id="g70"
           transform="translate(207.053,182.7395)"><path
             d="M 0,0 C 2.458,0 4.45,1.993 4.45,4.45 4.45,6.908 2.458,8.9 0,8.9 -2.458,8.9 -4.45,6.908 -4.45,4.45 -4.45,1.993 -2.458,0 0,0"
             style="fill:#111937;fill-opacity:1;fill-rule:nonzero;stroke:none"
             id="path72" /></g><g
           id="g74"
           transform="translate(184.4717,148.5086)"><path
             d="M 0,0 C 2.458,0 4.451,1.993 4.451,4.45 4.451,6.908 2.458,8.901 0,8.901 -2.458,8.901 -4.45,6.908 -4.45,4.45 -4.45,1.993 -2.458,0 0,0"
             style="fill:#111937;fill-opacity:1;fill-rule:nonzero;stroke:none"
             id="path76" /></g><g
           id="g78"
           transform="translate(171.4527,139.6029)"><path
             d="M 0,0 C 2.458,0 4.451,1.993 4.451,4.45 4.451,6.908 2.458,8.901 0,8.901 -2.458,8.901 -4.45,6.908 -4.45,4.45 -4.45,1.993 -2.458,0 0,0"
             style="fill:#111937;fill-opacity:1;fill-rule:nonzero;stroke:none"
             id="path80" /></g><g
           id="g82"
           transform="translate(93.3836,139.6029)"><path
             d="M 0,0 C 2.458,0 4.45,1.993 4.45,4.45 4.45,6.908 2.458,8.901 0,8.901 -2.458,8.901 -4.45,6.908 -4.45,4.45 -4.45,1.993 -2.458,0 0,0"
             style="fill:#111937;fill-opacity:1;fill-rule:nonzero;stroke:none"
             id="path84" /></g><g
           id="g86"
           transform="translate(188.1452,301.0281)"><path
             d="M 0,0 C 12.9,0 23.357,10.457 23.357,23.357 23.357,36.256 12.9,46.713 0,46.713 -12.899,46.713 -23.357,36.256 -23.357,23.357 -23.357,10.457 -12.899,0 0,0"
             style="fill:#53bfc2;fill-opacity:1;fill-rule:nonzero;stroke:none"
             id="path88" /></g><g
           id="g90"
           transform="translate(26.8253,232.5324)"><path
             d="M 0,0 C -3.019,0 -5.459,-2.475 -5.459,-5.461 V -34.76 c 0,-1.853 0.898,-3.551 2.425,-4.572 0.002,-10e-4 0.004,-0.003 0.007,-0.004 l 55.816,-36.763 -3.223,-4.892 -55.844,36.781 c -3.187,2.125 -5.039,5.668 -5.039,9.45 v 29.299 c 0,6.191 5.031,11.319 11.317,11.319 6.19,0 11.317,-5.033 11.317,-11.319 V -25.78 c 0,-1.783 0.895,-3.499 2.39,-4.527 l 19.19,-12.973 -3.28,-4.853 -19.217,12.99 c -3.088,2.118 -4.941,5.642 -4.941,9.363 V -5.461 C 5.459,-2.438 2.983,0 0,0"
             style="fill:#111937;fill-opacity:1;fill-rule:evenodd;stroke:none"
             id="path92" /></g><g
           id="g94"
           transform="translate(144.3987,365.0503)"><path
             d="M 0,0 H 76.855 C 83.151,0 88.17,-5.156 88.17,-11.354 v -95.434 c 0,-3.053 2.486,-5.496 5.458,-5.496 3.007,0 5.457,2.479 5.457,5.496 v 25.866 h 5.858 v -25.866 c 0,-6.198 -5.019,-11.354 -11.315,-11.354 -6.202,0 -11.316,5.061 -11.316,11.354 v 95.434 c 0,3.017 -2.451,5.496 -5.457,5.496 L 0,-5.858 Z"
             style="fill:#111937;fill-opacity:1;fill-rule:evenodd;stroke:none"
             id="path96" /></g><g
           id="g98"
           transform="translate(26.8487,375.6258)"><path
             d="m 0,0 c -3.032,0 -5.482,-2.485 -5.482,-5.484 v -65.464 h -5.858 v 65.464 c 0,6.203 5.041,11.342 11.34,11.342 h 211.854 c 6.203,0 11.34,-5.044 11.34,-11.342 v -65.53 h -5.859 v 65.53 c 0,3.035 -2.485,5.484 -5.481,5.484 z"
             style="fill:#111937;fill-opacity:1;fill-rule:evenodd;stroke:none"
             id="path100" /></g><g
           id="g102"
           transform="translate(32.2601,353.6966)"><path
             d="M 0,0 C 0,6.29 5.105,11.354 11.305,11.354 H 88.192 V 5.496 H 11.305 C 8.343,5.496 5.858,3.057 5.858,0 v -95.435 c 0,-6.193 -5.01,-11.353 -11.305,-11.353 -6.199,0 -11.304,5.064 -11.304,11.353 v 26.985 h 5.858 v -26.985 c 0,-3.056 2.485,-5.495 5.446,-5.495 2.998,0 5.447,2.475 5.447,5.495 z"
             style="fill:#111937;fill-opacity:1;fill-rule:evenodd;stroke:none"
             id="path104" /></g><g
           id="g106"
           transform="translate(126.2393,139.1958)"><path
             d="m 0,0 -59.419,38.345 3.176,4.922 L 3.208,4.901 C 4.971,3.742 7.321,3.72 9.184,4.917 c 0.001,0 0.003,0.001 0.004,0.001 L 68.612,43.267 71.788,38.345 12.355,-0.009 C 8.588,-2.43 3.739,-2.454 0,0"
             style="fill:#111937;fill-opacity:1;fill-rule:evenodd;stroke:none"
             id="path108" /></g><g
           id="g110"
           transform="translate(120.791,357.3307)"><path
             d="M 0,0 C 2.458,0 4.45,1.992 4.45,4.45 4.45,6.908 2.458,8.901 0,8.901 -2.458,8.901 -4.45,6.908 -4.45,4.45 -4.45,1.992 -2.458,0 0,0"
             style="fill:#111937;fill-opacity:1;fill-rule:nonzero;stroke:none"
             id="path112" /></g><g
           id="g114"
           transform="translate(70.8029,174.5215)"><path
             d="M 0,0 C 2.458,0 4.45,1.992 4.45,4.45 4.45,6.908 2.458,8.9 0,8.9 -2.458,8.9 -4.45,6.908 -4.45,4.45 -4.45,1.992 -2.458,0 0,0"
             style="fill:#111937;fill-opacity:1;fill-rule:nonzero;stroke:none"
             id="path116" /></g><g
           id="g118"
           transform="translate(58.4797,182.7395)"><path
             d="M 0,0 C 2.458,0 4.45,1.993 4.45,4.45 4.45,6.908 2.458,8.9 0,8.9 -2.458,8.9 -4.45,6.908 -4.45,4.45 -4.45,1.993 -2.458,0 0,0"
             style="fill:#111937;fill-opacity:1;fill-rule:nonzero;stroke:none"
             id="path120" /></g><g
           id="g122"
           transform="translate(79.7027,148.5086)"><path
             d="M 0,0 C 2.458,0 4.45,1.993 4.45,4.45 4.45,6.908 2.458,8.901 0,8.901 -2.458,8.901 -4.45,6.908 -4.45,4.45 -4.45,1.993 -2.458,0 0,0"
             style="fill:#111937;fill-opacity:1;fill-rule:nonzero;stroke:none"
             id="path124" /></g><g
           id="g126"
           transform="translate(126.5156,119.3795)"><path
             d="m 0,0 -35.733,23.25 3.194,4.91 35.76,-23.267 c 1.838,-1.209 4.238,-1.209 6.075,0 L 9.309,4.902 45.056,28.16 48.251,23.25 12.517,0 C 12.515,-0.001 12.513,-0.003 12.511,-0.004 8.722,-2.495 3.796,-2.495 0.007,-0.004 0.005,-0.003 0.002,-0.001 0,0"
             style="fill:#111937;fill-opacity:1;fill-rule:evenodd;stroke:none"
             id="path128" /></g></g></g><text
       transform="matrix(1,0,0,-1,289.3301,279.751)"
       style="font-variant:normal;font-weight:800;font-stretch:normal;font-size:130.735px;font-family:'Poppins ExtraBold';-inkscape-font-specification:Poppins-ExtraBold;writing-mode:lr-tb;fill:#53bfc2;fill-opacity:1;fill-rule:nonzero;stroke:none"
       id="text134"><tspan
         x="0 99.096977 182.24431 267.09119 347.62384"
         y="0"
         sodipodi:role="line"
         id="tspan130">Cover</tspan><tspan
         x="0 99.096977 182.24431 321.73834 410.638 499.53766 557.97614 638.50879"
         y="128.90451"
         sodipodi:role="line"
         id="tspan132">Compared</tspan></text><g
       id="g136"><g
         id="g138"
         clip-path="url(#clipPath142)" /></g></g></svg>
