<svg width="157" height="173" viewBox="0 0 157 173" fill="none" xmlns="http://www.w3.org/2000/svg">
<g filter="url(#filter0_i)">
<path d="M109.995 102.676L82.0892 121.053C79.9853 122.443 77.286 122.443 75.1821 121.053L47.2759 102.676C45.4895 101.525 44.4574 99.5399 44.4574 97.4362V50.1226C44.4177 46.6297 47.2362 43.8115 50.7294 43.8115H106.542C110.035 43.8115 112.854 46.6297 112.854 50.1226V97.4362C112.814 99.5399 111.782 101.525 109.995 102.676Z" stroke="url(#paint0_linear)" stroke-width="15.1123" stroke-miterlimit="10"/>
</g>
<path d="M109.671 66.3139C121.536 66.3139 131.155 56.6954 131.155 44.8303C131.155 32.9652 121.536 23.3467 109.671 23.3467C97.806 23.3467 88.1875 32.9652 88.1875 44.8303C88.1875 56.6954 97.806 66.3139 109.671 66.3139Z" fill="white"/>
<path d="M106.984 136.89L136.492 117.455C137.739 116.624 138.466 115.238 138.466 113.749V98.2634C138.466 95.8384 136.492 93.8291 134.033 93.8291C131.609 93.8291 129.6 95.8037 129.6 98.2634V109.003C129.6 110.458 128.872 111.843 127.66 112.675L117.513 119.534" stroke="#154B7E" stroke-width="3.09612" stroke-miterlimit="10"/>
<path d="M84.7271 29.419C86.0261 29.419 87.0791 28.3659 87.0791 27.0669C87.0791 25.7679 86.0261 24.7148 84.7271 24.7148C83.4281 24.7148 82.375 25.7679 82.375 27.0669C82.375 28.3659 83.4281 29.419 84.7271 29.419Z" fill="#154B7E"/>
<path d="M138.647 60.5401C139.946 60.5401 140.999 59.487 140.999 58.188C140.999 56.889 139.946 55.8359 138.647 55.8359C137.348 55.8359 136.295 56.889 136.295 58.188C136.295 59.487 137.348 60.5401 138.647 60.5401Z" fill="#154B7E"/>
<path d="M18.145 60.5401C19.444 60.5401 20.4971 59.487 20.4971 58.188C20.4971 56.889 19.444 55.8359 18.145 55.8359C16.846 55.8359 15.793 56.889 15.793 58.188C15.793 59.487 16.846 60.5401 18.145 60.5401Z" fill="#154B7E"/>
<path d="M138.647 70.3086C139.946 70.3086 140.999 69.2556 140.999 67.9566C140.999 66.6575 139.946 65.6045 138.647 65.6045C137.348 65.6045 136.295 66.6575 136.295 67.9566C136.295 69.2556 137.348 70.3086 138.647 70.3086Z" fill="#154B7E"/>
<path d="M18.145 70.3086C19.444 70.3086 20.4971 69.2556 20.4971 67.9566C20.4971 66.6575 19.444 65.6045 18.145 65.6045C16.846 65.6045 15.793 66.6575 15.793 67.9566C15.793 69.2556 16.846 70.3086 18.145 70.3086Z" fill="#154B7E"/>
<path d="M111.143 126.036C112.442 126.036 113.495 124.983 113.495 123.684C113.495 122.385 112.442 121.332 111.143 121.332C109.844 121.332 108.791 122.385 108.791 123.684C108.791 124.983 109.844 126.036 111.143 126.036Z" fill="#154B7E"/>
<path d="M117.659 121.692C118.958 121.692 120.011 120.639 120.011 119.34C120.011 118.041 118.958 116.988 117.659 116.988C116.36 116.988 115.307 118.041 115.307 119.34C115.307 120.639 116.36 121.692 117.659 121.692Z" fill="#154B7E"/>
<path d="M105.719 139.784C107.018 139.784 108.071 138.731 108.071 137.432C108.071 136.133 107.018 135.08 105.719 135.08C104.42 135.08 103.367 136.133 103.367 137.432C103.367 138.731 104.42 139.784 105.719 139.784Z" fill="#154B7E"/>
<path d="M98.8443 144.49C100.143 144.49 101.196 143.437 101.196 142.138C101.196 140.839 100.143 139.786 98.8443 139.786C97.5452 139.786 96.4922 140.839 96.4922 142.138C96.4922 143.437 97.5452 144.49 98.8443 144.49Z" fill="#154B7E"/>
<path d="M57.5903 144.49C58.8894 144.49 59.9424 143.437 59.9424 142.138C59.9424 140.839 58.8894 139.786 57.5903 139.786C56.2913 139.786 55.2383 140.839 55.2383 142.138C55.2383 143.437 56.2913 144.49 57.5903 144.49Z" fill="#154B7E"/>
<g filter="url(#filter1_i)">
<path d="M107.671 59.1742C114.488 59.1742 120.015 53.6474 120.015 46.8298C120.015 40.0121 114.488 34.4854 107.671 34.4854C100.853 34.4854 95.3262 40.0121 95.3262 46.8298C95.3262 53.6474 100.853 59.1742 107.671 59.1742Z" fill="#FFA800"/>
</g>
<path d="M49.4483 136.89L19.9409 117.455C18.6941 116.624 17.9668 115.238 17.9668 113.749V98.2634C17.9668 95.8384 19.9409 93.8291 22.3998 93.8291C24.8242 93.8291 26.8329 95.8037 26.8329 98.2634V109.003C26.8329 110.458 27.5602 111.843 28.7723 112.675L38.9198 119.534" stroke="#154B7E" stroke-width="3.09612" stroke-miterlimit="10"/>
<path d="M138.465 68.1068V81.7776C138.465 84.2126 136.492 86.2302 134.033 86.2302C131.609 86.2302 129.6 84.2474 129.6 81.7776V31.3383C129.6 28.9033 127.627 26.8857 125.168 26.8857H84.5488" stroke="#154B7E" stroke-width="3.09612" stroke-miterlimit="10"/>
<path d="M17.9668 57.2469V22.6477C17.9668 20.216 19.9464 18.2012 22.4122 18.2012H134.381C136.812 18.2012 138.827 20.1812 138.827 22.6477V57.2816" stroke="#154B7E" stroke-width="3.09612" stroke-miterlimit="10"/>
<path d="M71.8834 26.8857H31.2471C28.8262 26.8857 26.8203 28.8685 26.8203 31.3383V81.7776C26.8203 84.2126 24.849 86.2302 22.3936 86.2302C19.9727 86.2302 17.9668 84.2474 17.9668 81.7776V67.5154" stroke="#154B7E" stroke-width="3.09612" stroke-miterlimit="10"/>
<path d="M44.3809 123.139L75.7903 143.409C77.2448 144.366 79.1494 144.366 80.6385 143.409L112.048 123.139" stroke="#154B7E" stroke-width="3.09612" stroke-miterlimit="10"/>
<path d="M72.065 29.419C73.364 29.419 74.417 28.3659 74.417 27.0669C74.417 25.7679 73.364 24.7148 72.065 24.7148C70.7659 24.7148 69.7129 25.7679 69.7129 27.0669C69.7129 28.3659 70.7659 29.419 72.065 29.419Z" fill="#154B7E"/>
<path d="M45.6509 126.036C46.9499 126.036 48.003 124.983 48.003 123.684C48.003 122.385 46.9499 121.332 45.6509 121.332C44.3519 121.332 43.2988 122.385 43.2988 123.684C43.2988 124.983 44.3519 126.036 45.6509 126.036Z" fill="#154B7E"/>
<path d="M39.1372 121.692C40.4362 121.692 41.4893 120.639 41.4893 119.34C41.4893 118.041 40.4362 116.988 39.1372 116.988C37.8382 116.988 36.7852 118.041 36.7852 119.34C36.7852 120.639 37.8382 121.692 39.1372 121.692Z" fill="#154B7E"/>
<path d="M50.3521 139.784C51.6511 139.784 52.7041 138.731 52.7041 137.432C52.7041 136.133 51.6511 135.08 50.3521 135.08C49.0531 135.08 48 136.133 48 137.432C48 138.731 49.0531 139.784 50.3521 139.784Z" fill="#154B7E"/>
<path d="M57.0469 141.596L75.9396 153.888C77.4275 154.867 79.3653 154.867 80.8531 153.888L99.7459 141.596" stroke="#154B7E" stroke-width="3.09612" stroke-miterlimit="10"/>
<defs>
<filter id="filter0_i" x="36.9004" y="36.2559" width="88.5098" height="100.396" filterUnits="userSpaceOnUse" color-interpolation-filters="sRGB">
<feFlood flood-opacity="0" result="BackgroundImageFix"/>
<feBlend mode="normal" in="SourceGraphic" in2="BackgroundImageFix" result="shape"/>
<feColorMatrix in="SourceAlpha" type="matrix" values="0 0 0 0 0 0 0 0 0 0 0 0 0 0 0 0 0 0 127 0" result="hardAlpha"/>
<feOffset dx="5" dy="7"/>
<feGaussianBlur stdDeviation="7.5"/>
<feComposite in2="hardAlpha" operator="arithmetic" k2="-1" k3="1"/>
<feColorMatrix type="matrix" values="0 0 0 0 1 0 0 0 0 1 0 0 0 0 1 0 0 0 0.25 0"/>
<feBlend mode="normal" in2="shape" result="effect1_innerShadow"/>
</filter>
<filter id="filter1_i" x="95.3262" y="34.4854" width="26.8551" height="27.7204" filterUnits="userSpaceOnUse" color-interpolation-filters="sRGB">
<feFlood flood-opacity="0" result="BackgroundImageFix"/>
<feBlend mode="normal" in="SourceGraphic" in2="BackgroundImageFix" result="shape"/>
<feColorMatrix in="SourceAlpha" type="matrix" values="0 0 0 0 0 0 0 0 0 0 0 0 0 0 0 0 0 0 127 0" result="hardAlpha"/>
<feOffset dx="2.16569" dy="3.03196"/>
<feGaussianBlur stdDeviation="3.24853"/>
<feComposite in2="hardAlpha" operator="arithmetic" k2="-1" k3="1"/>
<feColorMatrix type="matrix" values="0 0 0 0 1 0 0 0 0 1 0 0 0 0 1 0 0 0 0.25 0"/>
<feBlend mode="normal" in2="shape" result="effect1_innerShadow"/>
</filter>
<linearGradient id="paint0_linear" x1="34.3834" y1="31.9138" x2="129.699" y2="37.7957" gradientUnits="userSpaceOnUse">
<stop stop-color="#227599"/>
<stop offset="1" stop-color="#42DDC1"/>
</linearGradient>
</defs>
</svg>
