<svg width="123" height="138" viewBox="0 0 123 138" fill="none" xmlns="http://www.w3.org/2000/svg">
<path d="M90.3232 124.625L91.666 123.696C95.8681 120.791 97.9696 119.338 99.8492 117.78C110.063 109.315 116.923 97.5155 119.206 84.4859C119.626 82.088 119.844 79.5513 120.281 74.478L120.507 71.8547C121.23 63.4572 121.158 55.0108 120.292 46.6267L120.024 44.0322C118.508 29.3603 109.501 16.501 96.1916 10.0074C74.3085 -0.669143 48.6915 -0.669143 26.8084 10.0074C13.499 16.501 4.49186 29.3603 2.97633 44.0322L2.70832 46.6267C1.84229 55.0108 1.77023 63.4573 2.49307 71.8547L2.71889 74.478C3.1556 79.5513 3.37395 82.088 3.79414 84.4859C6.07732 97.5155 12.9373 109.315 23.1508 117.78C25.0303 119.338 27.1321 120.791 31.334 123.696L32.6768 124.625C38.3897 128.575 41.2464 130.551 44.1093 131.923C55.0985 137.192 67.9015 137.192 78.8907 131.923C81.7537 130.551 84.6103 128.576 90.3232 124.625Z" stroke="#0B365D" stroke-width="3" stroke-dasharray="6 6"/>
<path d="M120.281 74.478L120.507 71.8547C121.23 63.4572 121.158 55.0108 120.292 46.6267L120.024 44.0322C118.508 29.3603 109.501 16.501 96.1916 10.0074C74.3085 -0.669143 48.6915 -0.669143 26.8084 10.0074C13.499 16.501 4.49186 29.3603 2.97633 44.0322L2.70832 46.6267C1.84229 55.0108 1.77023 63.4573 2.49307 71.8547L2.71889 74.478C3.1556 79.5513 3.37395 82.088 3.79414 84.4859C6.07732 97.5155 12.9373 109.315 23.1508 117.78C25.0303 119.338 27.1321 120.791 31.334 123.696L32.6768 124.625C38.3897 128.575 41.2464 130.551 44.1093 131.923" stroke="#2CB673" stroke-width="3" stroke-linecap="round" stroke-dasharray="6 6"/>
<path d="M43.039 69.0078C43.039 79.2383 51.3603 87.5615 61.5888 87.5615C71.8173 87.5615 80.1386 79.2383 80.1386 69.0078C80.1386 58.7773 71.8173 50.4541 61.5888 50.4541C51.3603 50.4541 43.039 58.7773 43.039 69.0078ZM61.5888 52.4541C70.7143 52.4541 78.1386 59.8799 78.1386 69.0078C78.1386 78.1357 70.7143 85.5615 61.5888 85.5615C52.4633 85.5615 45.039 78.1357 45.039 69.0078C45.039 59.8799 52.4633 52.4541 61.5888 52.4541Z" fill="#2CB673"/>
<path d="M56.6904 78.6143H58.5283V80.127C58.5283 80.6797 58.976 81.127 59.5283 81.127C60.0805 81.127 60.5283 80.6797 60.5283 80.127V78.6143H62.2162V80.127C62.2162 80.6797 62.664 81.127 63.2162 81.127C63.7685 81.127 64.2162 80.6797 64.2162 80.127V78.5834C66.9803 78.4214 69.186 76.1434 69.186 73.3389C69.186 71.582 68.3227 70.0225 66.998 69.0635C68.3227 68.1045 69.186 66.5449 69.186 64.7881C69.186 61.9836 66.9803 59.7055 64.2162 59.5436V57.8809C64.2162 57.3281 63.7685 56.8809 63.2162 56.8809C62.664 56.8809 62.2162 57.3281 62.2162 57.8809V59.5127H60.5283V57.8809C60.5283 57.3281 60.0805 56.8809 59.5283 56.8809C58.976 56.8809 58.5283 57.3281 58.5283 57.8809V59.5127H56.6904C56.1381 59.5127 55.6904 59.96 55.6904 60.5127V77.6143C55.6904 78.167 56.1381 78.6143 56.6904 78.6143ZM57.6904 61.5127H63.9106C65.7167 61.5127 67.186 62.9824 67.186 64.7881C67.186 66.5938 65.7167 68.0635 63.9106 68.0635H57.6904V61.5127ZM57.6904 70.0635H63.9106C65.7167 70.0635 67.186 71.5332 67.186 73.3389C67.186 75.1445 65.7167 76.6143 63.9106 76.6143H57.6904V70.0635Z" fill="#2CB673"/>
<path d="M61.7675 41.6729C65.2627 41.6729 68.1152 38.8525 68.1338 35.3691C68.1425 33.6758 67.4882 32.0811 66.2905 30.877C65.0947 29.6758 63.5 29.0088 61.8007 29C61.7885 29 61.7763 29 61.7641 29C60.0786 29 58.4912 29.6484 57.291 30.8291C56.081 32.0205 55.4096 33.6084 55.4008 35.3027C55.3921 36.9961 56.0464 38.5918 57.2436 39.7949C58.4394 40.9971 60.0341 41.6641 61.7334 41.6729C61.7451 41.6729 61.7563 41.6729 61.7675 41.6729ZM57.4008 35.3125C57.4072 34.1553 57.8662 33.0693 58.6938 32.2549C59.5171 31.4453 60.6064 31 61.7646 31C61.7734 31 61.7817 31 61.79 31C62.9575 31.0059 64.0527 31.4639 64.873 32.2881C65.6923 33.1113 66.1401 34.2021 66.1338 35.3594C66.1211 37.7422 64.165 39.6729 61.7675 39.6729C61.7597 39.6729 61.7519 39.6729 61.7441 39.6729C60.5766 39.667 59.4819 39.209 58.6616 38.3848C57.8423 37.5615 57.3945 36.4707 57.4008 35.3125Z" fill="#2CB673"/>
<path d="M53.0712 39.0986L40.3891 46.4209C39.9106 46.6973 39.747 47.3086 40.0229 47.7871C40.2084 48.1084 40.5444 48.2871 40.8901 48.2871C41.0595 48.2871 41.2319 48.2441 41.3891 48.1533L54.0712 40.8311C54.5497 40.5547 54.7133 39.9434 54.4374 39.4648C54.1606 38.9853 53.5478 38.8223 53.0712 39.0986Z" fill="#2CB673"/>
<path d="M37.9956 55.2109C39.7666 52.1797 38.7539 48.2793 35.7378 46.5166C32.7197 44.7519 28.8252 45.7851 27.0542 48.8154C25.2827 51.8467 26.2963 55.747 29.3125 57.5097C30.292 58.082 31.3823 58.375 32.4882 58.375C33.0336 58.375 33.583 58.3037 34.125 58.1601C35.7636 57.7256 37.1381 56.6777 37.9956 55.2109ZM30.3217 55.7832C28.2573 54.5761 27.5659 51.9033 28.7807 49.8252C29.5947 48.4326 31.059 47.6552 32.5586 47.6552C33.2978 47.6552 34.0463 47.8447 34.728 48.2431C36.7924 49.4502 37.4834 52.123 36.269 54.2011C35.6801 55.209 34.7363 55.9287 33.6118 56.2265C32.4921 56.5254 31.3217 56.3672 30.3217 55.7832Z" fill="#2CB673"/>
<path d="M31.436 61.4258V76.0693C31.436 76.6221 31.8837 77.0693 32.436 77.0693C32.9882 77.0693 33.436 76.6221 33.436 76.0693V61.4258C33.436 60.873 32.9882 60.4258 32.436 60.4258C31.8837 60.4258 31.436 60.873 31.436 61.4258Z" fill="#2CB673"/>
<path d="M26.8422 88.8144C27.684 90.291 29.0478 91.3535 30.682 91.8056C31.2445 91.9609 31.8153 92.0381 32.3827 92.0381C33.4657 92.0381 34.5351 91.7568 35.5009 91.207C36.9716 90.3672 38.0263 89.0029 38.4696 87.3642C38.9125 85.7275 38.6928 84.0127 37.851 82.5371C37.0092 81.0605 35.6454 79.999 34.0116 79.5469C32.3734 79.0918 30.6635 79.3066 29.1923 80.1455C27.7216 80.9853 26.6669 82.3496 26.2235 83.9883C25.7807 85.624 26.0004 87.3388 26.8422 88.8144ZM28.1542 84.5107C28.4574 83.3896 29.1781 82.457 30.1835 81.8828C30.8432 81.5068 31.5736 81.3144 32.3144 81.3144C32.7025 81.3144 33.0932 81.3672 33.4779 81.4736C34.599 81.7842 35.5351 82.5136 36.1137 83.5273C36.6918 84.542 36.8432 85.7187 36.539 86.8418C36.2358 87.9629 35.515 88.8955 34.5097 89.4687C33.5048 90.0429 32.3344 90.1875 31.2152 89.8779C30.0941 89.5674 29.1576 88.8379 28.5795 87.8242C28.0014 86.8095 27.85 85.6328 28.1542 84.5107Z" fill="#2CB673"/>
<path d="M39.5873 89.96C39.3115 90.4385 39.4755 91.0498 39.9536 91.3262L52.6357 98.6475C52.7934 98.7383 52.9653 98.7812 53.1347 98.7812C53.4804 98.7812 53.8164 98.6016 54.0019 98.2812C54.2778 97.8027 54.1137 97.1914 53.6357 96.915L40.9536 89.5937C40.4736 89.3174 39.8637 89.4824 39.5873 89.96Z" fill="#2CB673"/>
<path d="M61.4101 96.3252C57.915 96.3252 55.0625 99.1455 55.0439 102.629C55.0351 104.322 55.6894 105.917 56.8872 107.121C58.083 108.322 59.6777 108.989 61.3769 108.998C61.3891 108.998 61.4013 108.998 61.4135 108.998C63.0991 108.998 64.6865 108.35 65.8867 107.169C67.0966 105.978 67.768 104.39 67.7768 102.695C67.7856 101.002 67.1313 99.4062 65.934 98.2031C64.7382 97.001 63.1435 96.334 61.4443 96.3252C61.4326 96.3252 61.4214 96.3252 61.4101 96.3252ZM65.7768 102.686C65.7705 103.843 65.3115 104.929 64.4839 105.743C63.6606 106.553 62.5713 106.998 61.4131 106.998C61.4043 106.998 61.396 106.998 61.3877 106.998C60.2202 106.992 59.125 106.534 58.3047 105.71C57.4853 104.887 57.0376 103.796 57.0439 102.639C57.0566 100.256 59.0127 98.3252 61.4101 98.3252C61.4179 98.3252 61.4257 98.3252 61.4336 98.3252C62.601 98.3311 63.6958 98.7891 64.5161 99.6133C65.3354 100.437 65.7832 101.527 65.7768 102.686Z" fill="#2CB673"/>
<path d="M81.7885 89.8447L69.1064 97.167C68.6279 97.4434 68.4643 98.0547 68.7402 98.5332C68.9257 98.8545 69.2617 99.0332 69.6074 99.0332C69.7768 99.0332 69.9492 98.9902 70.1064 98.8994L82.7885 91.5771C83.267 91.3008 83.4306 90.6894 83.1547 90.2109C82.8774 89.7314 82.2665 89.5684 81.7885 89.8447Z" fill="#2CB673"/>
<path d="M96.1235 89.1826C97.8949 86.1514 96.8813 82.251 93.8652 80.4883C92.4018 79.6338 90.6933 79.4033 89.0527 79.8379C87.414 80.2725 86.0395 81.3203 85.1821 82.7871C83.4111 85.8184 84.4238 89.7188 87.4399 91.4815C88.4389 92.0654 89.5336 92.3428 90.6157 92.3428C92.8027 92.3428 94.9384 91.21 96.1235 89.1826ZM86.9086 83.7969C87.4975 82.7891 88.4413 82.0693 89.5658 81.7715C90.6874 81.4746 91.8564 81.6318 92.8559 82.2149C94.9203 83.4219 95.6117 86.0947 94.3969 88.1729C93.1821 90.252 90.5146 90.9629 88.4496 89.7549C86.3852 88.5479 85.6943 85.875 86.9086 83.7969Z" fill="#2CB673"/>
<path d="M91.7416 76.5723V61.9287C91.7416 61.376 91.2939 60.9287 90.7416 60.9287C90.1894 60.9287 89.7416 61.376 89.7416 61.9287V76.5723C89.7416 77.125 90.1894 77.5723 90.7416 77.5723C91.2939 77.5723 91.7416 77.125 91.7416 76.5723Z" fill="#2CB673"/>
<path d="M96.3354 49.1836C95.4936 47.7071 94.1299 46.6446 92.4956 46.1924C90.8598 45.7412 89.1489 45.9532 87.6767 46.791C86.206 47.6309 85.1513 48.9951 84.708 50.6338C84.2651 52.2705 84.4848 53.9854 85.3266 55.461C86.1684 56.9375 87.5322 57.9991 89.166 58.4512C89.7285 58.6075 90.2993 58.6846 90.8667 58.6846C91.9502 58.6846 93.0195 58.4034 93.9853 57.8526C95.456 57.0127 96.5107 55.6485 96.9541 54.0098C97.3969 52.3741 97.1772 50.6592 96.3354 49.1836ZM95.0234 53.4873C94.7202 54.6084 93.9995 55.541 92.9941 56.1153C91.9887 56.6885 90.8188 56.834 89.6997 56.5244C88.5786 56.2139 87.6425 55.4844 87.0639 54.4707C86.4858 53.4561 86.3344 52.2793 86.6386 51.1563C86.9419 50.0352 87.6626 49.1026 88.6679 48.5293C89.3271 48.1524 90.0576 47.961 90.7983 47.961C91.1865 47.961 91.5776 48.0137 91.9624 48.1201C93.0835 48.4307 94.02 49.1602 94.5981 50.1739C95.1762 51.1885 95.3276 52.3653 95.0234 53.4873Z" fill="#2CB673"/>
<path d="M83.5903 48.0381C83.8662 47.5596 83.7021 46.9482 83.2241 46.6719L70.5419 39.3506C70.062 39.0732 69.4521 39.2393 69.1757 39.7168C68.8998 40.1953 69.0639 40.8066 69.5419 41.083L82.2241 48.4043C82.3818 48.4951 82.5537 48.5381 82.7231 48.5381C83.0688 48.5381 83.4047 48.3584 83.5903 48.0381Z" fill="#2CB673"/>
</svg>
