<svg width="745" height="274" viewBox="0 0 745 274" fill="none" xmlns="http://www.w3.org/2000/svg">
<g opacity="0.14">
<path opacity="0.14" d="M417.778 233.892L562.068 244.11L656.05 226.478L743.951 216.418L675.293 194.863L606.848 153.965L585.84 135.727L564.832 132.963L522.264 156.729L507.891 174.568L464.217 194.863L417.778 233.892Z" fill="#20557B"/>
<path opacity="0.14" d="M295.049 192.1L333.333 169.519L364.153 115.278L415.014 80.4586L440.444 77.6952L466.981 98.1443L494.622 119.699L522.264 156.728L507.891 174.568L468.442 194.172L417.779 233.892L366.918 219.181L295.049 192.1Z" fill="#20557B"/>
<path opacity="0.14" d="M22.9942 255.33L133.068 219.182L245.847 156.728L295.049 192.1L339.457 209.335L446.526 238.525L553.023 260.762L227.05 249.695L174.661 260.762L0 272.92L22.9942 255.33Z" fill="#20557B"/>
</g>
<g opacity="0.23">
<path opacity="0.23" d="M25.7585 255.33L151.312 221.945L190.563 203.154L219.863 175.52L248.611 156.729L133.068 218.134L25.7585 255.33Z" fill="#29ABE2"/>
<path opacity="0.23" d="M295.049 189.335L333.333 169.518L364.153 115.278L415.014 80.4586L440.444 77.6952L405.616 98.1443L400.198 167.303L361.389 178.283L338.723 208.68L309.423 197.626L295.049 189.335Z" fill="#29ABE2" stroke="#29ABE2" stroke-miterlimit="10"/>
<path opacity="0.23" d="M522.264 156.728L491.858 124.643L440.445 77.6952L466.981 98.1443L497.387 119.699L522.264 156.728Z" fill="#29ABE2" stroke="#29ABE2" stroke-miterlimit="10"/>
<path opacity="0.23" d="M417.778 232.998L309.433 197.549L270.872 180.943L245.066 158.407L295.049 189.335L336.129 215.045L417.778 232.998Z" fill="#29ABE2" stroke="#29ABE2" stroke-miterlimit="10"/>
<path opacity="0.23" d="M417.778 232.998L507.891 175.519L564.833 132.963L585.841 135.726L564.833 165.018L417.778 232.998Z" fill="#29ABE2" stroke="#29ABE2" stroke-miterlimit="10"/>
<path opacity="0.23" d="M743.951 216.418L656.051 189.335L623.434 175.519L606.942 153.959L663.237 188.231L743.951 216.418Z" fill="#29ABE2" stroke="#29ABE2" stroke-miterlimit="10"/>
</g>
<path d="M295.049 192.1L327.666 178.283" stroke="#D4EEF9" stroke-miterlimit="10"/>
<path d="M295.049 192.1L350.333 159.492" stroke="#D4EEF9" stroke-miterlimit="10"/>
<path d="M327.666 178.283L350.332 159.492" stroke="#D4EEF9" stroke-miterlimit="10"/>
<path d="M327.666 178.283L364.153 115.278" stroke="#D4EEF9" stroke-miterlimit="10"/>
<path d="M446.526 103.671L466.981 98.1444" stroke="#D4EEF9" stroke-miterlimit="10"/>
<path d="M446.526 103.671L364.153 115.278" stroke="#D4EEF9" stroke-miterlimit="10"/>
<path d="M400.075 167.348L405.616 98.1444" stroke="#D4EEF9" stroke-miterlimit="10"/>
<path d="M400.075 167.349L361.389 178.283" stroke="#D4EEF9" stroke-miterlimit="10"/>
<path d="M361.389 178.283L350.332 159.492" stroke="#D4EEF9" stroke-miterlimit="10"/>
<path d="M350.332 159.492L364.153 115.278" stroke="#D4EEF9" stroke-miterlimit="10"/>
<path d="M364.153 115.277L405.616 98.1444" stroke="#D4EEF9" stroke-miterlimit="10"/>
<path d="M364.153 115.278L415.014 80.4586" stroke="#D4EEF9" stroke-miterlimit="10"/>
<path d="M405.616 98.1444L415.014 80.4586" stroke="#D4EEF9" stroke-miterlimit="10"/>
<path d="M405.616 98.1444L440.445 77.6952" stroke="#D4EEF9" stroke-miterlimit="10"/>
<path d="M415.014 80.4587L440.445 77.6952" stroke="#D4EEF9" stroke-miterlimit="10"/>
<path d="M440.445 77.6952L466.981 98.1444" stroke="#D4EEF9" stroke-miterlimit="10"/>
<path d="M522.264 156.728L507.891 175.519" stroke="#D4EEF9" stroke-miterlimit="10"/>
<path d="M522.265 156.728L466.981 194.863" stroke="#D4EEF9" stroke-miterlimit="10"/>
<path d="M606.848 153.965L585.84 135.727" stroke="#D4EEF9" stroke-miterlimit="10"/>
<path d="M606.848 153.965L564.833 132.963" stroke="#D4EEF9" stroke-miterlimit="10"/>
<path d="M585.841 135.727L564.833 132.963" stroke="#D4EEF9" stroke-miterlimit="10"/>
<path d="M585.84 135.727L507.891 175.52" stroke="#D4EEF9" stroke-miterlimit="10"/>
<path d="M564.833 132.963L507.891 175.52" stroke="#D4EEF9" stroke-miterlimit="10"/>
<path d="M507.891 175.519L466.981 194.863" stroke="#D4EEF9" stroke-miterlimit="10"/>
<path d="M434.916 227.471L417.778 232.998" stroke="#D4EEF9" stroke-miterlimit="10"/>
<path d="M434.916 227.472L564.833 132.963" stroke="#D4EEF9" stroke-miterlimit="10"/>
<path d="M466.981 194.863L434.916 227.471" stroke="#D4EEF9" stroke-miterlimit="10"/>
<path d="M417.778 232.998L466.981 194.863" stroke="#D4EEF9" stroke-miterlimit="10"/>
<path d="M219.863 175.519L222.628 203.153" stroke="#D4EEF9" stroke-miterlimit="10"/>
<path d="M219.863 175.519L190.563 200.39" stroke="#D4EEF9" stroke-miterlimit="10"/>
<path d="M245.847 156.728L219.863 175.519" stroke="#D4EEF9" stroke-miterlimit="10"/>
<path d="M245.846 156.728L222.627 203.153" stroke="#D4EEF9" stroke-miterlimit="10"/>
<path d="M222.628 203.154L190.563 200.39" stroke="#D4EEF9" stroke-miterlimit="10"/>
<path d="M190.563 200.39L151.312 219.181" stroke="#D4EEF9" stroke-miterlimit="10"/>
<path d="M133.068 219.181H151.312" stroke="#D4EEF9" stroke-miterlimit="10"/>
<path d="M133.068 219.181L245.847 156.728" stroke="#D4EEF9" stroke-miterlimit="10"/>
<path d="M151.312 219.181L245.847 156.728" stroke="#D4EEF9" stroke-miterlimit="10"/>
<path d="M198.579 187.955H189.457" stroke="#D4EEF9" stroke-miterlimit="10"/>
<path d="M198.579 187.955H205.213" stroke="#D4EEF9" stroke-miterlimit="10"/>
<path d="M189.457 187.955L170.937 209.786" stroke="#D4EEF9" stroke-miterlimit="10"/>
<path d="M142.19 219.181H133.068" stroke="#D4EEF9" stroke-miterlimit="10"/>
<path d="M142.19 219.181H151.311" stroke="#D4EEF9" stroke-miterlimit="10"/>
<path d="M170.937 209.786L151.312 219.181" stroke="#D4EEF9" stroke-miterlimit="10"/>
<path d="M170.937 209.786L133.068 219.181" stroke="#D4EEF9" stroke-miterlimit="10"/>
<path d="M206.595 201.772L190.563 200.39" stroke="#D4EEF9" stroke-miterlimit="10"/>
<path d="M206.595 201.772L222.628 203.154" stroke="#D4EEF9" stroke-miterlimit="10"/>
<path d="M234.237 179.941L232.855 166.124" stroke="#D4EEF9" stroke-miterlimit="10"/>
<path d="M234.237 179.941L219.863 175.519" stroke="#D4EEF9" stroke-miterlimit="10"/>
<path d="M232.855 166.124L219.863 175.519" stroke="#D4EEF9" stroke-miterlimit="10"/>
<path d="M205.213 187.955L190.563 200.39" stroke="#D4EEF9" stroke-miterlimit="10"/>
<path d="M205.213 187.955L219.863 175.519" stroke="#D4EEF9" stroke-miterlimit="10"/>
<path d="M221.245 189.337L219.863 175.519" stroke="#D4EEF9" stroke-miterlimit="10"/>
<path d="M221.245 189.336L222.627 203.154" stroke="#D4EEF9" stroke-miterlimit="10"/>
<path d="M442.38 213.931L450.949 211.167" stroke="#D4EEF9" stroke-miterlimit="10"/>
<path d="M442.38 213.931L426.347 230.235" stroke="#D4EEF9" stroke-miterlimit="10"/>
<path d="M450.949 211.167L466.981 194.863" stroke="#D4EEF9" stroke-miterlimit="10"/>
<path d="M499.875 180.217L461.452 151.202" stroke="#D4EEF9" stroke-miterlimit="10"/>
<path d="M499.875 180.217L406.998 119.699" stroke="#D4EEF9" stroke-miterlimit="10"/>
<path d="M426.347 230.235L417.778 232.998" stroke="#D4EEF9" stroke-miterlimit="10"/>
<path d="M426.347 230.235L446.526 238.525" stroke="#D4EEF9" stroke-miterlimit="10"/>
<path d="M487.436 185.191L466.981 194.863" stroke="#D4EEF9" stroke-miterlimit="10"/>
<path d="M487.436 185.191L461.452 151.202" stroke="#D4EEF9" stroke-miterlimit="10"/>
<path d="M536.362 154.241L546.866 155.623" stroke="#D4EEF9" stroke-miterlimit="10"/>
<path d="M536.362 154.241L515.078 166.124" stroke="#D4EEF9" stroke-miterlimit="10"/>
<path d="M546.866 155.623L515.078 166.124" stroke="#D4EEF9" stroke-miterlimit="10"/>
<path d="M575.337 134.345L585.841 143.464" stroke="#D4EEF9" stroke-miterlimit="10"/>
<path d="M575.337 134.345L564.833 132.963" stroke="#D4EEF9" stroke-miterlimit="10"/>
<path d="M585.841 143.464L564.833 132.963" stroke="#D4EEF9" stroke-miterlimit="10"/>
<path d="M596.344 144.846L585.84 135.727" stroke="#D4EEF9" stroke-miterlimit="10"/>
<path d="M596.344 144.846L585.84 143.464" stroke="#D4EEF9" stroke-miterlimit="10"/>
<path d="M494.623 175.796L461.452 151.202" stroke="#D4EEF9" stroke-miterlimit="10"/>
<path d="M494.623 175.796L484.119 138.49" stroke="#D4EEF9" stroke-miterlimit="10"/>
<path d="M515.078 166.124L522.264 156.728" stroke="#D4EEF9" stroke-miterlimit="10"/>
<path d="M515.078 166.124L507.891 175.519" stroke="#D4EEF9" stroke-miterlimit="10"/>
<path d="M453.713 87.9198L440.445 77.6952" stroke="#D4EEF9" stroke-miterlimit="10"/>
<path d="M453.712 87.9198L446.526 103.671" stroke="#D4EEF9" stroke-miterlimit="10"/>
<path d="M427.729 79.0768L415.014 80.4586" stroke="#D4EEF9" stroke-miterlimit="10"/>
<path d="M427.729 79.0768L410.315 89.3013" stroke="#D4EEF9" stroke-miterlimit="10"/>
<path d="M423.03 87.9198L410.315 89.3016" stroke="#D4EEF9" stroke-miterlimit="10"/>
<path d="M423.03 87.9198L415.014 80.4586" stroke="#D4EEF9" stroke-miterlimit="10"/>
<path d="M410.315 89.3016L415.014 80.4586" stroke="#D4EEF9" stroke-miterlimit="10"/>
<path d="M389.584 97.868L384.885 106.711" stroke="#D4EEF9" stroke-miterlimit="10"/>
<path d="M389.584 97.868L405.339 109.474" stroke="#D4EEF9" stroke-miterlimit="10"/>
<path d="M384.885 106.711L405.34 109.474" stroke="#D4EEF9" stroke-miterlimit="10"/>
<path d="M384.885 106.711L364.153 115.278" stroke="#D4EEF9" stroke-miterlimit="10"/>
<path d="M357.243 137.385L364.153 115.278" stroke="#D4EEF9" stroke-miterlimit="10"/>
<path d="M357.243 137.385L345.91 146.78" stroke="#D4EEF9" stroke-miterlimit="10"/>
<path d="M355.861 168.887L350.332 159.492" stroke="#D4EEF9" stroke-miterlimit="10"/>
<path d="M355.861 168.887H338.999" stroke="#D4EEF9" stroke-miterlimit="10"/>
<path d="M400.199 167.303L350.332 159.492" stroke="#D4EEF9" stroke-miterlimit="10"/>
<path d="M400.198 164.634L364.153 115.278" stroke="#D4EEF9" stroke-miterlimit="10"/>
<path d="M406.998 119.699L405.616 98.1444" stroke="#D4EEF9" stroke-miterlimit="10"/>
<path d="M406.998 119.699L415.014 80.4586" stroke="#D4EEF9" stroke-miterlimit="10"/>
<path d="M405.339 109.474L364.153 115.278" stroke="#D4EEF9" stroke-miterlimit="10"/>
<path d="M456.753 100.908L446.526 103.671" stroke="#D4EEF9" stroke-miterlimit="10"/>
<path d="M456.753 100.908L466.981 98.1444" stroke="#D4EEF9" stroke-miterlimit="10"/>
<path d="M345.91 146.78L364.153 115.278" stroke="#D4EEF9" stroke-miterlimit="10"/>
<path d="M338.999 168.887L327.666 178.283" stroke="#D4EEF9" stroke-miterlimit="10"/>
<path d="M338.999 168.887L350.333 159.492" stroke="#D4EEF9" stroke-miterlimit="10"/>
<path d="M322.691 175.796L311.357 185.191" stroke="#D4EEF9" stroke-miterlimit="10"/>
<path d="M322.691 175.796L295.049 192.1" stroke="#D4EEF9" stroke-miterlimit="10"/>
<path d="M311.358 185.191L295.049 192.1" stroke="#D4EEF9" stroke-miterlimit="10"/>
<path d="M311.357 185.191L309.423 197.627" stroke="#D4EEF9" stroke-miterlimit="10"/>
<path d="M295.049 192.1L309.423 197.627" stroke="#D4EEF9" stroke-miterlimit="10"/>
<path d="M327.666 178.283L309.423 197.627" stroke="#D4EEF9" stroke-miterlimit="10"/>
<path d="M446.526 103.671L466.981 98.1444" stroke="#D4EEF9" stroke-miterlimit="10"/>
<path d="M400.075 167.349L499.875 180.217" stroke="#D4EEF9" stroke-miterlimit="10"/>
<path d="M400.075 167.349L406.998 119.699" stroke="#D4EEF9" stroke-miterlimit="10"/>
<path d="M361.389 178.283L355.861 168.887" stroke="#D4EEF9" stroke-miterlimit="10"/>
<path d="M361.389 178.283L350.332 159.492" stroke="#D4EEF9" stroke-miterlimit="10"/>
<path d="M405.616 98.1444L415.014 80.4586" stroke="#D4EEF9" stroke-miterlimit="10"/>
<path d="M440.445 77.6952L427.73 79.0771" stroke="#D4EEF9" stroke-miterlimit="10"/>
<path d="M461.452 151.201L484.119 138.49" stroke="#D4EEF9" stroke-miterlimit="10"/>
<path d="M522.264 156.728L507.891 175.519" stroke="#D4EEF9" stroke-miterlimit="10"/>
<path d="M743.951 216.418L703.042 211.443" stroke="#D4EEF9" stroke-miterlimit="10"/>
<path d="M743.951 216.418L656.051 189.336" stroke="#D4EEF9" stroke-miterlimit="10"/>
<path d="M703.042 211.443L656.051 189.336" stroke="#D4EEF9" stroke-miterlimit="10"/>
<path d="M656.051 189.337L623.433 175.519" stroke="#D4EEF9" stroke-miterlimit="10"/>
<path d="M656.05 189.337L597.45 186.573" stroke="#D4EEF9" stroke-miterlimit="10"/>
<path d="M597.45 186.573L623.433 175.519" stroke="#D4EEF9" stroke-miterlimit="10"/>
<path d="M597.45 186.573L606.848 153.965" stroke="#D4EEF9" stroke-miterlimit="10"/>
<path d="M623.433 175.52L606.848 153.965" stroke="#D4EEF9" stroke-miterlimit="10"/>
<path d="M623.433 175.52L585.84 135.727" stroke="#D4EEF9" stroke-miterlimit="10"/>
<path d="M606.848 153.965L596.344 144.846" stroke="#D4EEF9" stroke-miterlimit="10"/>
<path d="M585.84 135.727V143.464" stroke="#D4EEF9" stroke-miterlimit="10"/>
<path d="M564.833 165.018L575.337 134.345" stroke="#D4EEF9" stroke-miterlimit="10"/>
<path d="M564.833 165.019L585.841 143.464" stroke="#D4EEF9" stroke-miterlimit="10"/>
<path d="M434.916 227.471L426.347 230.235" stroke="#D4EEF9" stroke-miterlimit="10"/>
<path d="M434.916 227.471L446.526 238.525" stroke="#D4EEF9" stroke-miterlimit="10"/>
<path d="M466.981 194.863L494.623 175.796" stroke="#D4EEF9" stroke-miterlimit="10"/>
<path d="M446.526 238.525L417.778 232.998" stroke="#D4EEF9" stroke-miterlimit="10"/>
<path d="M417.778 232.998L434.916 227.471" stroke="#D4EEF9" stroke-miterlimit="10"/>
<path d="M338.723 208.68L366.918 219.181" stroke="#D4EEF9" stroke-miterlimit="10"/>
<path d="M338.723 208.68L309.423 197.627" stroke="#D4EEF9" stroke-miterlimit="10"/>
<path d="M366.917 219.181L417.778 232.998" stroke="#D4EEF9" stroke-miterlimit="10"/>
<path d="M270.724 181.046L295.049 192.1" stroke="#D4EEF9" stroke-miterlimit="10"/>
<path d="M270.724 181.046L245.847 156.728" stroke="#D4EEF9" stroke-miterlimit="10"/>
<path d="M245.847 156.728L234.237 179.941" stroke="#D4EEF9" stroke-miterlimit="10"/>
<path d="M245.847 156.728L232.855 166.124" stroke="#D4EEF9" stroke-miterlimit="10"/>
<path d="M222.628 203.153L219.863 175.519" stroke="#D4EEF9" stroke-miterlimit="10"/>
<path d="M133.068 219.181H151.312" stroke="#D4EEF9" stroke-miterlimit="10"/>
<path d="M466.981 98.1444L494.623 119.699" stroke="#D4EEF9" stroke-miterlimit="10"/>
<path d="M466.981 98.1444L522.265 156.728" stroke="#D4EEF9" stroke-miterlimit="10"/>
<path d="M484.119 138.49L494.623 119.699" stroke="#D4EEF9" stroke-miterlimit="10"/>
<path d="M522.264 156.728L484.119 138.49" stroke="#D4EEF9" stroke-miterlimit="10"/>
<path d="M522.264 156.729L494.623 119.699" stroke="#D4EEF9" stroke-miterlimit="10"/>
<path d="M327.666 178.283L309.423 197.627" stroke="#D4EEF9" stroke-miterlimit="10"/>
<path d="M327.666 178.283L338.723 208.68" stroke="#D4EEF9" stroke-miterlimit="10"/>
<path d="M327.666 178.283L366.918 219.181" stroke="#D4EEF9" stroke-miterlimit="10"/>
<path d="M400.075 167.349L361.389 178.283" stroke="#D4EEF9" stroke-miterlimit="10"/>
<path d="M400.075 167.349L350.332 159.492" stroke="#D4EEF9" stroke-miterlimit="10"/>
<path d="M400.075 167.349L466.981 194.863" stroke="#D4EEF9" stroke-miterlimit="10"/>
<path d="M361.389 178.283L350.332 159.492" stroke="#D4EEF9" stroke-miterlimit="10"/>
<path d="M361.389 178.283L338.723 208.68" stroke="#D4EEF9" stroke-miterlimit="10"/>
<path d="M361.389 178.283L366.918 219.181" stroke="#D4EEF9" stroke-miterlimit="10"/>
<path d="M350.333 159.492L338.723 208.68" stroke="#D4EEF9" stroke-miterlimit="10"/>
<path d="M350.332 159.492L309.423 197.627" stroke="#D4EEF9" stroke-miterlimit="10"/>
<path d="M434.916 227.471L446.526 238.525" stroke="#D4EEF9" stroke-miterlimit="10"/>
<path d="M434.916 227.471L417.778 232.998" stroke="#D4EEF9" stroke-miterlimit="10"/>
<path d="M434.916 227.471L366.917 219.181" stroke="#D4EEF9" stroke-miterlimit="10"/>
<path d="M466.981 194.863L434.916 227.471" stroke="#D4EEF9" stroke-miterlimit="10"/>
<path d="M466.981 194.863L446.526 238.525" stroke="#D4EEF9" stroke-miterlimit="10"/>
<path d="M466.981 194.863L417.778 232.998" stroke="#D4EEF9" stroke-miterlimit="10"/>
<path d="M446.526 238.525L417.778 232.998" stroke="#D4EEF9" stroke-miterlimit="10"/>
<path d="M446.526 238.525L366.917 219.181" stroke="#D4EEF9" stroke-miterlimit="10"/>
<path d="M417.778 232.998L366.917 219.181" stroke="#D4EEF9" stroke-miterlimit="10"/>
<path d="M338.723 208.68L366.918 219.181" stroke="#D4EEF9" stroke-miterlimit="10"/>
<path d="M338.723 208.68L309.423 197.627" stroke="#D4EEF9" stroke-miterlimit="10"/>
<path d="M366.918 219.181L309.423 197.627" stroke="#D4EEF9" stroke-miterlimit="10"/>
<path d="M295.049 192.1L309.423 197.627" stroke="#D4EEF9" stroke-miterlimit="10"/>
<path d="M327.666 178.283L309.423 197.627" stroke="#D4EEF9" stroke-miterlimit="10"/>
<path d="M446.526 103.671L466.981 98.1444" stroke="#D4EEF9" stroke-miterlimit="10"/>
<path d="M400.075 167.348L405.616 98.1444" stroke="#D4EEF9" stroke-miterlimit="10"/>
<path d="M361.389 178.283L350.332 159.492" stroke="#D4EEF9" stroke-miterlimit="10"/>
<path d="M364.153 115.277L405.616 98.1444" stroke="#D4EEF9" stroke-miterlimit="10"/>
<path d="M405.616 98.1444L415.014 80.4586" stroke="#D4EEF9" stroke-miterlimit="10"/>
<path d="M440.445 77.6952L415.014 80.4587" stroke="#D4EEF9" stroke-miterlimit="10"/>
<path d="M461.452 151.201L484.119 138.49" stroke="#D4EEF9" stroke-miterlimit="10"/>
<path d="M484.119 138.49L494.623 119.699" stroke="#D4EEF9" stroke-miterlimit="10"/>
<path d="M522.264 156.728L507.891 175.519" stroke="#D4EEF9" stroke-miterlimit="10"/>
<path d="M438.611 173.085L461.453 151.202" stroke="#D4EEF9" stroke-miterlimit="10"/>
<path d="M703.042 211.443L656.051 189.336" stroke="#D4EEF9" stroke-miterlimit="10"/>
<path d="M656.051 189.337L623.433 175.519" stroke="#D4EEF9" stroke-miterlimit="10"/>
<path d="M597.45 186.573L623.433 175.519" stroke="#D4EEF9" stroke-miterlimit="10"/>
<path d="M623.433 175.52L606.848 153.965" stroke="#D4EEF9" stroke-miterlimit="10"/>
<path d="M585.841 135.727L564.833 132.963" stroke="#D4EEF9" stroke-miterlimit="10"/>
<path d="M564.833 165.019V132.963" stroke="#D4EEF9" stroke-miterlimit="10"/>
<path d="M434.916 227.471L446.526 238.525" stroke="#D4EEF9" stroke-miterlimit="10"/>
<path d="M466.981 194.863L438.611 173.085" stroke="#D4EEF9" stroke-miterlimit="10"/>
<path d="M417.778 232.998L434.916 227.471" stroke="#D4EEF9" stroke-miterlimit="10"/>
<path d="M338.723 208.68L366.918 219.181" stroke="#D4EEF9" stroke-miterlimit="10"/>
<path d="M270.724 181.046L295.049 192.1" stroke="#D4EEF9" stroke-miterlimit="10"/>
<path d="M219.863 175.519L222.628 203.153" stroke="#D4EEF9" stroke-miterlimit="10"/>
<path d="M245.847 156.728L219.863 175.519" stroke="#D4EEF9" stroke-miterlimit="10"/>
<path d="M190.563 200.39L222.628 203.154" stroke="#D4EEF9" stroke-miterlimit="10"/>
<path d="M151.312 219.181L190.563 200.39" stroke="#D4EEF9" stroke-miterlimit="10"/>
<path d="M295.049 192.1L309.423 197.627" stroke="#D4EEF9" stroke-miterlimit="10"/>
<path d="M295.049 192.1L270.724 181.046" stroke="#D4EEF9" stroke-miterlimit="10"/>
<path d="M295.049 192.1L245.847 156.728" stroke="#D4EEF9" stroke-miterlimit="10"/>
<path d="M327.666 178.283L309.423 197.627" stroke="#D4EEF9" stroke-miterlimit="10"/>
<path d="M327.666 178.283L338.723 208.68" stroke="#D4EEF9" stroke-miterlimit="10"/>
<path d="M327.666 178.283L366.918 219.181" stroke="#D4EEF9" stroke-miterlimit="10"/>
<path d="M446.526 103.671L466.981 98.1444" stroke="#D4EEF9" stroke-miterlimit="10"/>
<path d="M446.526 103.671L461.452 151.202" stroke="#D4EEF9" stroke-miterlimit="10"/>
<path d="M446.526 103.671L494.623 119.699" stroke="#D4EEF9" stroke-miterlimit="10"/>
<path d="M400.075 167.348L405.616 98.1444" stroke="#D4EEF9" stroke-miterlimit="10"/>
<path d="M400.075 167.349L438.611 173.085" stroke="#D4EEF9" stroke-miterlimit="10"/>
<path d="M400.075 167.349L350.332 159.492" stroke="#D4EEF9" stroke-miterlimit="10"/>
<path d="M361.389 178.283L350.332 159.492" stroke="#D4EEF9" stroke-miterlimit="10"/>
<path d="M361.389 178.283L338.723 208.68" stroke="#D4EEF9" stroke-miterlimit="10"/>
<path d="M361.389 178.283L366.918 219.181" stroke="#D4EEF9" stroke-miterlimit="10"/>
<path d="M350.332 159.492L364.153 115.278" stroke="#D4EEF9" stroke-miterlimit="10"/>
<path d="M350.333 159.492L338.723 208.68" stroke="#D4EEF9" stroke-miterlimit="10"/>
<path d="M364.153 115.277L405.616 98.1444" stroke="#D4EEF9" stroke-miterlimit="10"/>
<path d="M364.153 115.278L415.014 80.4586" stroke="#D4EEF9" stroke-miterlimit="10"/>
<path d="M364.153 115.278L440.445 77.6952" stroke="#D4EEF9" stroke-miterlimit="10"/>
<path d="M405.616 98.1444L415.014 80.4586" stroke="#D4EEF9" stroke-miterlimit="10"/>
<path d="M405.616 98.1444L440.445 77.6952" stroke="#D4EEF9" stroke-miterlimit="10"/>
<path d="M415.014 80.4587L440.445 77.6952" stroke="#D4EEF9" stroke-miterlimit="10"/>
<path d="M415.014 80.4586L466.981 98.1444" stroke="#D4EEF9" stroke-miterlimit="10"/>
<path d="M440.445 77.6952L466.981 98.1444" stroke="#D4EEF9" stroke-miterlimit="10"/>
<path d="M440.445 77.6952L494.623 119.699" stroke="#D4EEF9" stroke-miterlimit="10"/>
<path d="M466.981 98.1444L494.623 119.699" stroke="#D4EEF9" stroke-miterlimit="10"/>
<path d="M461.452 151.201L484.119 138.49" stroke="#D4EEF9" stroke-miterlimit="10"/>
<path d="M461.453 151.202L438.611 173.085" stroke="#D4EEF9" stroke-miterlimit="10"/>
<path d="M461.452 151.202L466.981 194.863" stroke="#D4EEF9" stroke-miterlimit="10"/>
<path d="M484.119 138.49L494.623 119.699" stroke="#D4EEF9" stroke-miterlimit="10"/>
<path d="M484.119 138.49L522.264 156.728" stroke="#D4EEF9" stroke-miterlimit="10"/>
<path d="M484.119 138.49L507.891 175.519" stroke="#D4EEF9" stroke-miterlimit="10"/>
<path d="M522.264 156.728L507.891 175.519" stroke="#D4EEF9" stroke-miterlimit="10"/>
<path d="M522.264 156.728L564.833 165.018" stroke="#D4EEF9" stroke-miterlimit="10"/>
<path d="M522.264 156.729L494.623 119.699" stroke="#D4EEF9" stroke-miterlimit="10"/>
<path d="M438.611 173.085L466.981 194.863" stroke="#D4EEF9" stroke-miterlimit="10"/>
<path d="M438.611 173.085L417.778 232.998" stroke="#D4EEF9" stroke-miterlimit="10"/>
<path d="M703.042 211.443L656.051 189.336" stroke="#D4EEF9" stroke-miterlimit="10"/>
<path d="M703.041 211.443L623.433 175.519" stroke="#D4EEF9" stroke-miterlimit="10"/>
<path d="M703.042 211.444L606.848 153.965" stroke="#D4EEF9" stroke-miterlimit="10"/>
<path d="M656.051 189.337L623.433 175.519" stroke="#D4EEF9" stroke-miterlimit="10"/>
<path d="M656.05 189.337L597.45 186.573" stroke="#D4EEF9" stroke-miterlimit="10"/>
<path d="M656.051 189.336L606.848 153.965" stroke="#D4EEF9" stroke-miterlimit="10"/>
<path d="M597.45 186.573L623.433 175.519" stroke="#D4EEF9" stroke-miterlimit="10"/>
<path d="M597.45 186.573L606.848 153.965" stroke="#D4EEF9" stroke-miterlimit="10"/>
<path d="M597.45 186.573L564.833 165.018" stroke="#D4EEF9" stroke-miterlimit="10"/>
<path d="M623.433 175.52L606.848 153.965" stroke="#D4EEF9" stroke-miterlimit="10"/>
<path d="M623.433 175.52L585.84 135.727" stroke="#D4EEF9" stroke-miterlimit="10"/>
<path d="M623.433 175.519L564.833 165.018" stroke="#D4EEF9" stroke-miterlimit="10"/>
<path d="M606.848 153.965L585.84 135.727" stroke="#D4EEF9" stroke-miterlimit="10"/>
<path d="M606.848 153.965L564.833 165.019" stroke="#D4EEF9" stroke-miterlimit="10"/>
<path d="M585.841 135.727L564.833 132.963" stroke="#D4EEF9" stroke-miterlimit="10"/>
<path d="M585.841 135.727L564.833 165.019" stroke="#D4EEF9" stroke-miterlimit="10"/>
<path d="M585.84 135.727L507.891 175.52" stroke="#D4EEF9" stroke-miterlimit="10"/>
<path d="M564.833 132.963V165.019" stroke="#D4EEF9" stroke-miterlimit="10"/>
<path d="M564.833 132.963L507.891 175.52" stroke="#D4EEF9" stroke-miterlimit="10"/>
<path d="M564.833 165.018L507.891 175.519" stroke="#D4EEF9" stroke-miterlimit="10"/>
<path d="M507.891 175.519L466.981 194.863" stroke="#D4EEF9" stroke-miterlimit="10"/>
<path d="M507.891 175.519L494.623 119.699" stroke="#D4EEF9" stroke-miterlimit="10"/>
<path d="M434.916 227.471L446.526 238.525" stroke="#D4EEF9" stroke-miterlimit="10"/>
<path d="M434.916 227.471L417.778 232.998" stroke="#D4EEF9" stroke-miterlimit="10"/>
<path d="M434.916 227.471L366.917 219.181" stroke="#D4EEF9" stroke-miterlimit="10"/>
<path d="M466.981 194.863L434.916 227.471" stroke="#D4EEF9" stroke-miterlimit="10"/>
<path d="M446.526 238.525L417.778 232.998" stroke="#D4EEF9" stroke-miterlimit="10"/>
<path d="M446.526 238.525L366.917 219.181" stroke="#D4EEF9" stroke-miterlimit="10"/>
<path d="M417.778 232.998L366.917 219.181" stroke="#D4EEF9" stroke-miterlimit="10"/>
<path d="M338.723 208.68L366.918 219.181" stroke="#D4EEF9" stroke-miterlimit="10"/>
<path d="M338.723 208.68L309.423 197.627" stroke="#D4EEF9" stroke-miterlimit="10"/>
<path d="M366.918 219.181L309.423 197.627" stroke="#D4EEF9" stroke-miterlimit="10"/>
<path d="M270.724 181.046L245.847 156.728" stroke="#D4EEF9" stroke-miterlimit="10"/>
<path d="M270.724 181.046L219.863 175.519" stroke="#D4EEF9" stroke-miterlimit="10"/>
<path d="M219.863 175.519L222.628 203.153" stroke="#D4EEF9" stroke-miterlimit="10"/>
<path d="M219.863 175.519L190.563 200.39" stroke="#D4EEF9" stroke-miterlimit="10"/>
<path d="M219.863 175.519L151.312 219.181" stroke="#D4EEF9" stroke-miterlimit="10"/>
<path d="M245.847 156.728L219.863 175.519" stroke="#D4EEF9" stroke-miterlimit="10"/>
<path d="M245.846 156.728L222.627 203.153" stroke="#D4EEF9" stroke-miterlimit="10"/>
<path d="M245.847 156.728L190.563 200.39" stroke="#D4EEF9" stroke-miterlimit="10"/>
<path d="M222.628 203.154L190.563 200.39" stroke="#D4EEF9" stroke-miterlimit="10"/>
<path d="M222.628 203.154L151.312 219.181" stroke="#D4EEF9" stroke-miterlimit="10"/>
<path d="M190.563 200.39L151.312 219.181" stroke="#D4EEF9" stroke-miterlimit="10"/>
<path d="M190.563 200.39L338.723 208.68" stroke="#D4EEF9" stroke-miterlimit="10"/>
<path d="M151.312 219.181L245.847 156.728" stroke="#D4EEF9" stroke-miterlimit="10"/>
<path d="M151.312 219.181L338.723 208.68" stroke="#D4EEF9" stroke-miterlimit="10"/>
<path d="M494.623 119.699L461.452 151.202" stroke="#D4EEF9" stroke-miterlimit="10"/>
<path d="M697.305 264.522L703.042 211.443" stroke="#D4EEF9" stroke-miterlimit="10"/>
<path d="M697.305 264.522L597.45 186.573" stroke="#D4EEF9" stroke-miterlimit="10"/>
<path d="M697.305 264.522L564.833 165.018" stroke="#D4EEF9" stroke-miterlimit="10"/>
<path d="M596.454 249.695L597.45 186.573" stroke="#D4EEF9" stroke-miterlimit="10"/>
<path d="M596.454 249.695L564.833 165.018" stroke="#D4EEF9" stroke-miterlimit="10"/>
<path d="M596.454 249.695L446.526 238.525" stroke="#D4EEF9" stroke-miterlimit="10"/>
<path d="M322.675 270.156L366.918 219.181" stroke="#D4EEF9" stroke-miterlimit="10"/>
<path d="M322.675 270.156L338.723 208.68" stroke="#D4EEF9" stroke-miterlimit="10"/>
<path d="M322.675 270.156L309.423 197.627" stroke="#D4EEF9" stroke-miterlimit="10"/>
<path d="M174.661 257.998L151.312 219.181" stroke="#D4EEF9" stroke-miterlimit="10"/>
<path d="M174.661 257.998L309.423 197.627" stroke="#D4EEF9" stroke-miterlimit="10"/>
<path d="M174.661 257.998L366.917 219.181" stroke="#D4EEF9" stroke-miterlimit="10"/>
<path d="M25.7585 255.329L133.068 219.181" stroke="#D4EEF9" stroke-miterlimit="10"/>
<path d="M25.7585 255.329L151.312 219.181" stroke="#D4EEF9" stroke-miterlimit="10"/>
<path d="M25.7585 255.33L309.423 197.627" stroke="#D4EEF9" stroke-miterlimit="10"/>
<path d="M295.049 192.1L309.423 197.627" stroke="#D4EEF9" stroke-miterlimit="10"/>
<path d="M295.049 192.1L366.918 219.181" stroke="#D4EEF9" stroke-miterlimit="10"/>
<path d="M295.049 192.1L151.312 219.181" stroke="#D4EEF9" stroke-miterlimit="10"/>
<path d="M703.041 211.443L597.45 186.573" stroke="#D4EEF9" stroke-miterlimit="10"/>
<path d="M703.042 211.443L564.833 165.018" stroke="#D4EEF9" stroke-miterlimit="10"/>
<path d="M597.45 186.573L564.833 165.018" stroke="#D4EEF9" stroke-miterlimit="10"/>
<path d="M597.45 186.573L446.526 238.525" stroke="#D4EEF9" stroke-miterlimit="10"/>
<path d="M564.832 165.018L446.526 238.525" stroke="#D4EEF9" stroke-miterlimit="10"/>
<path d="M564.833 165.018L366.917 219.181" stroke="#D4EEF9" stroke-miterlimit="10"/>
<path d="M434.916 227.471L446.526 238.525" stroke="#D4EEF9" stroke-miterlimit="10"/>
<path d="M434.916 227.471L366.917 219.181" stroke="#D4EEF9" stroke-miterlimit="10"/>
<path d="M434.916 227.472L309.423 197.627" stroke="#D4EEF9" stroke-miterlimit="10"/>
<path d="M446.526 238.525L366.917 219.181" stroke="#D4EEF9" stroke-miterlimit="10"/>
<path d="M446.526 238.525L309.423 197.627" stroke="#D4EEF9" stroke-miterlimit="10"/>
<path d="M338.723 208.68L366.918 219.181" stroke="#D4EEF9" stroke-miterlimit="10"/>
<path d="M338.723 208.68L309.423 197.627" stroke="#D4EEF9" stroke-miterlimit="10"/>
<path d="M338.723 208.68L446.526 238.525" stroke="#D4EEF9" stroke-miterlimit="10"/>
<path d="M366.918 219.181L309.423 197.627" stroke="#D4EEF9" stroke-miterlimit="10"/>
<path d="M133.068 219.181H151.312" stroke="#D4EEF9" stroke-miterlimit="10"/>
<path d="M133.068 219.181L295.049 192.1" stroke="#D4EEF9" stroke-miterlimit="10"/>
<path opacity="0.35" d="M431.135 79.0005V3.24219H462.067L455.524 11.99L462.186 21.0622H432.813V79.0005H431.135Z" fill="#29ABE2" stroke="#29ABE2" stroke-miterlimit="10"/>
<path d="M462.085 20.9221L449.188 15.5417L455.422 11.8499L431.033 3.10205L449.186 15.5417L461.964 3.10205L432.71 20.9221L449.186 15.5417L431.093 12.9025L461.965 3.10294L431.093 12.9025L432.711 78.8613H431.033V3.10205H461.965L455.422 11.8499L462.085 20.9221Z" stroke="#D4EEF9" stroke-miterlimit="10"/>
<path d="M432.814 79.0012V21.0629" stroke="#D4EEF9" stroke-miterlimit="10"/>
<path d="M495.68 122.252C497.091 121.668 497.76 120.051 497.176 118.641C496.592 117.231 494.975 116.562 493.565 117.146C492.154 117.73 491.484 119.346 492.069 120.756C492.653 122.166 494.27 122.836 495.68 122.252Z" fill="#29ABE2"/>
<path d="M151.312 221.945C152.838 221.945 154.076 220.707 154.076 219.181C154.076 217.655 152.838 216.418 151.312 216.418C149.785 216.418 148.547 217.655 148.547 219.181C148.547 220.707 149.785 221.945 151.312 221.945Z" fill="#29ABE2"/>
<path d="M133.068 221.945C134.594 221.945 135.832 220.707 135.832 219.181C135.832 217.655 134.594 216.418 133.068 216.418C131.541 216.418 130.304 217.655 130.304 219.181C130.304 220.707 131.541 221.945 133.068 221.945Z" fill="#29ABE2"/>
<path d="M193.252 201.025C193.601 199.54 192.681 198.053 191.195 197.703C189.71 197.354 188.222 198.274 187.873 199.759C187.523 201.244 188.444 202.731 189.929 203.081C191.415 203.43 192.902 202.51 193.252 201.025Z" fill="#29ABE2"/>
<path d="M223.683 205.709C225.095 205.128 225.768 203.512 225.186 202.1C224.605 200.688 222.988 200.015 221.576 200.597C220.164 201.178 219.491 202.794 220.073 204.206C220.654 205.617 222.27 206.29 223.683 205.709Z" fill="#29ABE2"/>
<path d="M247.801 158.682C248.88 157.603 248.88 155.853 247.801 154.774C246.721 153.695 244.971 153.695 243.892 154.774C242.812 155.853 242.812 157.603 243.892 158.682C244.971 159.761 246.721 159.761 247.801 158.682Z" fill="#29ABE2"/>
<path d="M219.863 178.283C221.39 178.283 222.628 177.046 222.628 175.519C222.628 173.993 221.39 172.756 219.863 172.756C218.337 172.756 217.099 173.993 217.099 175.519C217.099 177.046 218.337 178.283 219.863 178.283Z" fill="#29ABE2"/>
<path d="M272.418 183.23C273.624 182.295 273.843 180.559 272.907 179.353C271.971 178.147 270.235 177.928 269.029 178.864C267.823 179.799 267.604 181.535 268.54 182.741C269.476 183.947 271.212 184.166 272.418 183.23Z" fill="#29ABE2"/>
<path d="M309.422 200.39C310.949 200.39 312.187 199.153 312.187 197.627C312.187 196.101 310.949 194.863 309.422 194.863C307.896 194.863 306.658 196.101 306.658 197.627C306.658 199.153 307.896 200.39 309.422 200.39Z" fill="#29ABE2"/>
<path d="M366.917 221.945C368.444 221.945 369.682 220.707 369.682 219.181C369.682 217.655 368.444 216.418 366.917 216.418C365.391 216.418 364.153 217.655 364.153 219.181C364.153 220.707 365.391 221.945 366.917 221.945Z" fill="#29ABE2"/>
<path d="M341.413 209.315C341.764 207.83 340.844 206.341 339.358 205.991C337.872 205.64 336.383 206.56 336.032 208.045C335.682 209.531 336.602 211.019 338.088 211.37C339.573 211.72 341.062 210.8 341.413 209.315Z" fill="#29ABE2"/>
<path d="M417.778 235.762C419.305 235.762 420.542 234.524 420.542 232.998C420.542 231.472 419.305 230.235 417.778 230.235C416.252 230.235 415.014 231.472 415.014 232.998C415.014 234.524 416.252 235.762 417.778 235.762Z" fill="#29ABE2"/>
<path d="M449.216 239.16C449.567 237.675 448.647 236.186 447.161 235.836C445.675 235.485 444.186 236.405 443.836 237.89C443.485 239.375 444.405 240.864 445.891 241.215C447.377 241.565 448.865 240.645 449.216 239.16Z" fill="#29ABE2"/>
<path d="M468.935 196.817C470.015 195.738 470.015 193.988 468.935 192.909C467.856 191.83 466.106 191.83 465.026 192.909C463.947 193.988 463.947 195.738 465.026 196.817C466.106 197.896 467.856 197.896 468.935 196.817Z" fill="#29ABE2"/>
<path d="M436.871 229.425C437.95 228.346 437.95 226.596 436.871 225.517C435.791 224.438 434.041 224.438 432.962 225.517C431.882 226.596 431.882 228.346 432.962 229.425C434.041 230.505 435.791 230.505 436.871 229.425Z" fill="#29ABE2"/>
<path d="M507.89 178.283C509.417 178.283 510.655 177.046 510.655 175.519C510.655 173.993 509.417 172.756 507.89 172.756C506.364 172.756 505.126 173.993 505.126 175.519C505.126 177.046 506.364 178.283 507.89 178.283Z" fill="#29ABE2"/>
<path d="M566.787 166.973C567.867 165.893 567.867 164.144 566.787 163.064C565.708 161.985 563.957 161.985 562.878 163.064C561.799 164.144 561.799 165.893 562.878 166.973C563.957 168.052 565.708 168.052 566.787 166.973Z" fill="#29ABE2"/>
<path d="M567.523 133.598C567.874 132.113 566.953 130.624 565.468 130.274C563.982 129.923 562.493 130.843 562.142 132.328C561.792 133.814 562.712 135.302 564.197 135.653C565.683 136.003 567.172 135.083 567.523 133.598Z" fill="#29ABE2"/>
<path d="M585.84 138.49C587.367 138.49 588.605 137.253 588.605 135.727C588.605 134.2 587.367 132.963 585.84 132.963C584.314 132.963 583.076 134.2 583.076 135.727C583.076 137.253 584.314 138.49 585.84 138.49Z" fill="#29ABE2"/>
<path d="M623.433 178.283C624.96 178.283 626.197 177.046 626.197 175.519C626.197 173.993 624.96 172.756 623.433 172.756C621.906 172.756 620.669 173.993 620.669 175.519C620.669 177.046 621.906 178.283 623.433 178.283Z" fill="#29ABE2"/>
<path d="M600.14 187.208C600.491 185.723 599.571 184.234 598.085 183.884C596.599 183.533 595.11 184.453 594.76 185.938C594.409 187.424 595.329 188.912 596.815 189.263C598.301 189.613 599.79 188.693 600.14 187.208Z" fill="#29ABE2"/>
<path d="M657.108 191.89C658.519 191.306 659.188 189.689 658.604 188.279C658.02 186.869 656.403 186.199 654.993 186.783C653.582 187.368 652.912 188.984 653.497 190.394C654.081 191.804 655.698 192.474 657.108 191.89Z" fill="#29ABE2"/>
<path d="M704.996 213.398C706.076 212.318 706.076 210.569 704.996 209.49C703.917 208.41 702.166 208.41 701.087 209.49C700.008 210.569 700.008 212.318 701.087 213.398C702.166 214.477 703.917 214.477 704.996 213.398Z" fill="#29ABE2"/>
<path d="M438.611 174.568C439.43 174.568 440.094 173.904 440.094 173.085C440.094 172.266 439.43 171.602 438.611 171.602C437.791 171.602 437.127 172.266 437.127 173.085C437.127 173.904 437.791 174.568 438.611 174.568Z" fill="#29ABE2"/>
<path d="M524.219 158.682C525.298 157.603 525.298 155.853 524.219 154.774C523.139 153.695 521.389 153.695 520.31 154.774C519.23 155.853 519.23 157.603 520.31 158.682C521.389 159.761 523.139 159.761 524.219 158.682Z" fill="#29ABE2"/>
<path d="M486.809 139.125C487.16 137.639 486.239 136.151 484.754 135.8C483.268 135.45 481.779 136.37 481.428 137.855C481.078 139.34 481.998 140.829 483.483 141.179C484.969 141.53 486.458 140.61 486.809 139.125Z" fill="#29ABE2"/>
<path d="M463.407 153.156C464.487 152.077 464.487 150.327 463.407 149.248C462.328 148.169 460.577 148.169 459.498 149.248C458.418 150.327 458.418 152.077 459.498 153.156C460.577 154.235 462.328 154.235 463.407 153.156Z" fill="#29ABE2"/>
<path d="M468.935 100.098C470.015 99.0192 470.015 97.2695 468.935 96.1903C467.856 95.1112 466.106 95.1112 465.026 96.1903C463.947 97.2695 463.947 99.0192 465.026 100.098C466.106 101.178 467.856 101.178 468.935 100.098Z" fill="#29ABE2"/>
<path d="M443.135 78.3303C443.486 76.8449 442.565 75.3565 441.08 75.0059C439.594 74.6552 438.105 75.5751 437.754 77.0605C437.404 78.5459 438.324 80.0342 439.81 80.3849C441.295 80.7355 442.784 79.8156 443.135 78.3303Z" fill="#29ABE2"/>
<path d="M416.072 83.0116C417.482 82.4276 418.152 80.8111 417.568 79.401C416.984 77.991 415.367 77.3215 413.956 77.9055C412.546 78.4895 411.876 80.1061 412.46 81.5161C413.045 82.9261 414.662 83.5957 416.072 83.0116Z" fill="#29ABE2"/>
<path d="M407.57 100.098C408.65 99.0192 408.65 97.2695 407.57 96.1903C406.491 95.1112 404.741 95.1112 403.661 96.1903C402.582 97.2695 402.582 99.0192 403.661 100.098C404.741 101.178 406.491 101.178 407.57 100.098Z" fill="#29ABE2"/>
<path d="M366.843 115.912C367.194 114.427 366.274 112.939 364.788 112.588C363.302 112.237 361.814 113.157 361.463 114.642C361.112 116.128 362.032 117.616 363.518 117.967C365.004 118.318 366.493 117.398 366.843 115.912Z" fill="#29ABE2"/>
<path d="M353.023 160.127C353.374 158.641 352.453 157.153 350.968 156.802C349.482 156.452 347.993 157.372 347.642 158.857C347.291 160.342 348.212 161.831 349.697 162.181C351.183 162.532 352.672 161.612 353.023 160.127Z" fill="#29ABE2"/>
<path d="M364.079 178.918C364.43 177.432 363.51 175.944 362.024 175.593C360.538 175.243 359.049 176.163 358.699 177.648C358.348 179.133 359.268 180.622 360.754 180.972C362.24 181.323 363.728 180.403 364.079 178.918Z" fill="#29ABE2"/>
<path d="M402.765 167.983C403.116 166.498 402.196 165.01 400.71 164.659C399.224 164.308 397.735 165.228 397.384 166.714C397.034 168.199 397.954 169.687 399.44 170.038C400.925 170.389 402.414 169.469 402.765 167.983Z" fill="#29ABE2"/>
<path d="M448.48 105.625C449.56 104.546 449.56 102.796 448.48 101.717C447.401 100.638 445.651 100.638 444.571 101.717C443.492 102.796 443.492 104.546 444.571 105.625C445.651 106.704 447.401 106.704 448.48 105.625Z" fill="#29ABE2"/>
<path d="M330.394 178.725C330.638 177.218 329.614 175.799 328.108 175.555C326.601 175.311 325.181 176.334 324.937 177.84C324.693 179.347 325.716 180.766 327.223 181.01C328.73 181.254 330.149 180.231 330.394 178.725Z" fill="#29ABE2"/>
<path d="M297.739 192.735C298.09 191.25 297.17 189.761 295.684 189.411C294.198 189.06 292.709 189.98 292.358 191.465C292.008 192.951 292.928 194.439 294.414 194.79C295.9 195.14 297.388 194.22 297.739 192.735Z" fill="#29ABE2"/>
<path d="M28.4481 255.967C28.8003 254.482 27.8816 252.993 26.3961 252.641C24.9107 252.289 23.421 253.207 23.0689 254.692C22.7167 256.177 23.6354 257.666 25.1209 258.019C26.6063 258.371 28.096 257.452 28.4481 255.967Z" fill="#29ABE2"/>
<path d="M177.351 258.636C177.703 257.151 176.784 255.662 175.299 255.31C173.813 254.957 172.324 255.876 171.972 257.361C171.619 258.846 172.538 260.335 174.024 260.687C175.509 261.039 176.999 260.121 177.351 258.636Z" fill="#29ABE2"/>
<path d="M325.365 270.791C325.715 269.306 324.795 267.817 323.31 267.467C321.824 267.116 320.335 268.036 319.984 269.521C319.634 271.007 320.554 272.495 322.039 272.846C323.525 273.196 325.014 272.277 325.365 270.791Z" fill="#29ABE2"/>
<path d="M599.144 250.33C599.495 248.845 598.575 247.356 597.089 247.006C595.604 246.655 594.115 247.575 593.764 249.06C593.413 250.546 594.333 252.034 595.819 252.385C597.305 252.735 598.794 251.816 599.144 250.33Z" fill="#29ABE2"/>
<path d="M699.995 265.157C700.346 263.672 699.426 262.183 697.94 261.833C696.454 261.482 694.965 262.402 694.615 263.887C694.264 265.373 695.184 266.861 696.67 267.212C698.156 267.562 699.644 266.642 699.995 265.157Z" fill="#29ABE2"/>
</svg>
