<svg width="368" height="74" viewBox="0 0 368 74" fill="none" xmlns="http://www.w3.org/2000/svg">
<path d="M114.705 39.7389C114.705 43.5839 113.464 46.7879 110.992 49.3489C108.51 51.9089 105.381 53.1919 101.613 53.1919C97.8375 53.1919 94.7085 51.9089 92.2335 49.3489C89.7585 46.7869 88.5215 43.5829 88.5215 39.7389V22.8569H92.4735V40.2359C92.4735 42.7349 93.3805 44.8789 95.2155 46.6669C97.0405 48.4509 99.1735 49.3499 101.613 49.3499C104.053 49.3499 106.183 48.4519 108.011 46.6669C109.839 44.8789 110.753 42.7349 110.753 40.2359V22.8569H114.705V39.7389Z" fill="#111111"/>
<path d="M149.397 52.4649H145.453V35.1669C145.453 32.6709 144.539 30.5259 142.711 28.7269C140.883 26.9279 138.753 26.0229 136.309 26.0229C133.837 26.0229 131.689 26.9269 129.858 28.7269C128.03 30.5269 127.116 32.6709 127.116 35.1669V52.4649H123.171V35.5819C123.171 31.7389 124.416 28.5439 126.908 25.9999C129.401 23.4549 132.536 22.1809 136.309 22.1809C140.049 22.1809 143.168 23.4549 145.664 25.9999C148.153 28.5439 149.397 31.7389 149.397 35.5819V52.4649Z" fill="#111111"/>
<path d="M200.31 52.4649H196.205V34.2869C196.205 31.9989 195.544 30.0429 194.227 28.4159C192.914 26.7889 191.184 25.9719 189.033 25.9719C186.853 25.9719 184.974 26.6819 183.399 28.1029C181.818 29.5229 181.037 31.2919 181.037 33.4029V52.466H176.883V33.4029C176.883 31.2929 176.087 29.5229 174.516 28.1029C172.937 26.6819 171.06 25.9719 168.881 25.9719C166.729 25.9719 165.021 26.7789 163.737 28.3889C162.454 29.9979 161.814 31.9669 161.814 34.2869V52.4649H157.714V34.7539C157.714 31.0469 158.769 28.0709 160.878 25.8159C162.854 23.7029 165.448 22.5109 168.669 22.2299C172.965 21.8889 176.39 23.7239 178.958 27.7389C181.522 23.7239 184.945 21.8889 189.243 22.2299C192.463 22.5109 195.074 23.7029 197.09 25.8159C199.234 28.0719 200.31 31.0469 200.31 34.7539V52.4649Z" fill="#111111"/>
<path d="M239.109 37.6099V52.4639H235.16V47.8379C231.951 51.5179 228.019 53.2789 223.365 53.1389C219.295 52.9979 215.828 51.4229 212.967 48.4149C210.099 45.3999 208.67 41.8159 208.67 37.6609C208.67 33.3329 210.211 29.6199 213.291 26.5169C216.373 23.4179 220.061 21.9539 224.357 22.1259C228.515 22.2669 232.042 23.8519 234.953 26.8809C237.863 29.9109 239.251 33.4879 239.109 37.6099ZM235.16 37.3239C235.094 34.1999 233.982 31.5229 231.831 29.3039C229.676 27.0839 227.092 25.9709 224.072 25.9709C220.915 25.9709 218.221 27.0839 216.005 29.3039C213.783 31.5229 212.653 34.2159 212.618 37.3699C212.551 40.4979 213.581 43.2289 215.715 45.5739C217.853 47.9159 220.426 49.159 223.449 49.2999C226.706 49.4339 229.49 48.2979 231.803 45.8899C234.113 43.4749 235.23 40.6199 235.16 37.3239Z" fill="#111111"/>
<path d="M259.055 26.2329C257.221 26.3019 255.737 26.8049 254.591 27.7379C253.445 28.6759 252.671 29.4909 252.257 30.1759C251.591 31.3219 251.268 32.846 251.268 34.75V52.4639H247.111V22.8569H250.798V27.0669C251.631 25.4699 252.855 24.2399 254.486 23.3759C255.977 22.5769 257.496 22.2139 259.056 22.2859V26.2329H259.055Z" fill="#111111"/>
<path d="M282.793 43.638C283.004 46.302 282.07 48.617 279.989 50.569C277.914 52.5289 275.523 53.422 272.823 53.246C270.328 53.072 268.242 52.068 266.561 50.229C264.877 48.394 264.047 46.215 264.047 43.688H268.143V44.681C268.143 45.6979 268.703 46.746 269.807 47.826C270.921 48.915 272.095 49.4349 273.343 49.4019C275.002 49.3719 276.318 48.8629 277.29 47.8919C278.151 46.9879 278.61 45.808 278.638 44.345C278.672 41.807 277.232 40.0739 274.322 39.1349L270.848 38.0309C267.211 36.8889 265.307 34.41 265.134 30.5989C265.029 28.3119 265.802 26.3569 267.454 24.7249C269.099 23.1009 271.093 22.2299 273.421 22.1279C275.432 22.0269 277.317 22.6739 279.074 24.0749C280.827 25.4769 281.769 27.2179 281.91 29.2979V30.1769H277.755V29.4959C277.755 28.4469 277.317 27.5949 276.437 26.9469C275.55 26.2969 274.539 25.9709 273.393 25.9709C272.283 26.0079 271.326 26.4059 270.51 27.1719C269.695 27.9379 269.273 28.8959 269.237 30.0459C269.099 32.1709 270.362 33.6829 273.03 34.5859L276.459 35.7349C280.402 37.0899 282.515 39.722 282.793 43.638Z" fill="#111111"/>
<path d="M316.875 52.4649H312.924V35.2179C312.924 32.7259 311.995 30.5689 310.153 28.7509C308.297 26.9369 306.132 26.0579 303.656 26.1279C301.138 26.1659 299.015 26.9999 297.286 28.6459C295.557 30.2939 294.69 32.3789 294.69 34.9059V52.466H290.738V12.4139H294.69V27.0629C296.948 24.1229 299.845 22.5629 303.388 22.3889C307.065 22.2129 310.229 23.4279 312.886 26.0219C315.544 28.6229 316.874 31.8259 316.874 35.6359V52.4649H316.875Z" fill="#111111"/>
<path d="M355.209 37.6099V52.4639H351.258V47.8379C348.058 51.5179 344.12 53.2789 339.465 53.1389C335.396 52.9979 331.928 51.4229 329.068 48.4149C326.199 45.3999 324.77 41.8159 324.77 37.6609C324.77 33.3329 326.311 29.6199 329.391 26.5169C332.477 23.4179 336.161 21.9539 340.458 22.1259C344.612 22.2669 348.142 23.8519 351.053 26.8809C353.964 29.9109 355.341 33.4879 355.209 37.6099ZM351.257 37.3239C351.187 34.1999 350.081 31.5229 347.93 29.3039C345.773 27.0839 343.191 25.9709 340.167 25.9709C337.012 25.9709 334.317 27.0839 332.096 29.3039C329.882 31.5229 328.749 34.2159 328.715 37.3699C328.645 40.4979 329.677 43.2289 331.815 45.5739C333.953 47.9159 336.526 49.159 339.549 49.2999C342.812 49.4339 345.596 48.2979 347.902 45.8899C350.216 43.4749 351.328 40.6199 351.257 37.3239Z" fill="#111111"/>
<path d="M367.463 12.4139H363.52V52.4649H367.463V12.4139Z" fill="#111111"/>
<path d="M63.5566 33.633C63.5146 31.979 63.4686 30.417 63.4686 28.862V0H3.73861L15.3256 6.27499H57.1966V28.861C57.1966 30.504 57.2426 32.182 57.2876 33.802C57.4536 39.954 57.6246 46.315 55.3326 51.637C51.3666 60.842 42.3316 66.793 32.3266 66.793C20.1386 66.793 9.96061 58.961 6.99961 47.304C6.11761 43.823 6.23361 40.229 6.35961 36.418C6.40161 35.074 6.44361 33.686 6.44361 32.292V17.324L0.171615 14.006V32.294C0.171615 33.586 0.125616 34.924 0.0876157 36.216C-0.0453843 40.291 -0.179384 44.507 0.920616 48.85C4.59462 63.334 17.2226 73.068 32.3256 73.068C44.8416 73.068 56.1336 65.63 61.0906 54.12C63.9356 47.531 63.7426 40.465 63.5566 33.633Z" fill="#34D399"/>
<path d="M13.2756 42.4C13.2756 42.52 13.2826 42.637 13.2966 42.757C13.9646 48.682 18.7346 59.9 32.0096 59.9C45.4816 59.9 49.3416 48.509 49.5036 42.485C49.5036 42.457 49.5076 42.43 49.5076 42.4V14.878C49.5076 13.144 48.1016 11.737 46.3676 11.737H25.4116L36.9956 18.014H43.2326V42.347C43.1756 43.625 42.4376 53.624 32.0106 53.624C21.6396 53.624 19.7976 43.953 19.5476 42.198V24.26L13.3356 20.97C13.3006 21.16 13.2756 21.354 13.2756 21.556V42.4Z" fill="#34D399"/>
<path d="M13.3456 20.909C13.3356 20.929 13.3426 20.952 13.3356 20.97L19.5476 24.26L13.3456 20.909Z" fill="#34D399"/>
</svg>
